<svg width="24" height="24" viewBox="0 0 24 24" fill="none" xmlns="http://www.w3.org/2000/svg">
<path fill-rule="evenodd" clip-rule="evenodd" d="M14.9878 2.768C14.9878 2.346 15.3308 2.003 15.7528 2.003C19.6078 2 21.9998 4.392 21.9998 8.244V15.747C21.9998 19.608 19.6078 22 15.7558 22H8.25576C4.39276 22 1.99976 19.608 1.99976 15.747V8.247C1.99976 4.41 4.39276 2 8.25276 2H10.8218C11.2388 2 11.5778 2.339 11.5778 2.756V2.765H11.5608C11.5608 3.187 11.2188 3.529 10.7968 3.53H10.7948H8.25276C5.19976 3.53 3.52976 5.2 3.52976 8.244V15.744C3.52976 18.79 5.20976 20.47 8.25276 20.47H15.7528C18.7868 20.47 20.4668 18.79 20.4668 15.747V8.247C20.4668 5.204 18.7868 3.533 15.7528 3.533C15.3308 3.533 14.9878 3.19 14.9878 2.768ZM11.2499 7.9141V14.2701L8.78286 11.7931C8.49086 11.4991 8.01686 11.4981 7.72286 11.7911C7.42786 12.0831 7.42986 12.5581 7.72086 12.8511L11.4689 16.6151C11.4689 16.6161 11.4689 16.6161 11.4699 16.6161C11.5379 16.6851 11.6209 16.7401 11.7129 16.7781C11.8039 16.8161 11.9009 16.8361 11.9989 16.8361H11.9999C12.0068 16.8361 12.0127 16.8344 12.0186 16.8326C12.0237 16.8311 12.0288 16.8296 12.0349 16.8291C12.1199 16.8251 12.2049 16.8111 12.2859 16.7781C12.3679 16.7441 12.4399 16.6931 12.5059 16.6341C12.5091 16.6309 12.5128 16.6287 12.5165 16.6265C12.5208 16.624 12.5251 16.6214 12.5289 16.6171C12.5989 16.5481 12.6539 16.4651 12.6919 16.3741C12.7299 16.2811 12.7499 16.1851 12.7499 16.0861V7.9141C12.7499 7.5001 12.4139 7.1641 11.9999 7.1641C11.5859 7.1641 11.2499 7.5001 11.2499 7.9141ZM15.0009 14.1358L16.2789 12.8518C16.4249 12.7048 16.4979 12.5138 16.4979 12.3228C16.4979 12.1298 16.4249 11.9378 16.2769 11.7898C15.9829 11.4978 15.5089 11.4988 15.2169 11.7928L13.9389 13.0768C13.6469 13.3708 13.6469 13.8448 13.9399 14.1378C14.2339 14.4298 14.7089 14.4288 15.0009 14.1358Z" fill="#212121"/>
</svg>
