<svg width="24" height="24" viewBox="0 0 24 24" fill="none" xmlns="http://www.w3.org/2000/svg">
<path fill-rule="evenodd" clip-rule="evenodd" d="M7.64124 22H16.3582C19.7322 22 22.0002 19.632 22.0002 16.107L21.9992 14.692C21.9992 14.48 21.9032 14.28 21.7372 14.147C21.5181 13.9723 21.2931 13.777 21.0622 13.5768L21.0532 13.569L21.0464 13.5631C19.8116 12.4961 18.2767 11.1698 16.3482 11.619C14.9507 11.9434 14.2338 13.0013 13.6016 13.9341L13.5982 13.939L13.597 13.9409C13.1774 14.5612 12.7817 15.1463 12.2292 15.487C11.6862 15.825 11.0402 15.584 10.1162 15.18L9.95924 15.11C8.27324 14.376 6.89024 14.587 5.72924 15.757C5.45824 16.03 5.46024 16.473 5.73324 16.744C6.00624 17.017 6.44824 17.013 6.71924 16.74C7.46624 15.987 8.24424 15.885 9.40224 16.391L9.55624 16.458L9.55777 16.4587C10.4876 16.8646 11.7589 17.4196 12.9632 16.674C13.7702 16.174 14.2702 15.436 14.7532 14.722L14.7536 14.7215C15.3135 13.8947 15.7974 13.18 16.6642 12.979C17.9046 12.6922 19.039 13.6729 20.1384 14.6234L20.1402 14.625C20.1564 14.639 20.1725 14.6529 20.1886 14.6669C20.3291 14.7887 20.4679 14.9089 20.6042 15.022V16.107C20.6042 18.84 18.9372 20.604 16.3582 20.604H7.64124C5.06224 20.604 3.39524 18.84 3.39524 16.107V7.893C3.39524 5.16 5.06224 3.396 7.64124 3.396H16.3592C18.9382 3.396 20.6042 5.16 20.6042 7.893V10.263C20.6042 10.648 20.9172 10.961 21.3022 10.961C21.6872 10.961 22.0002 10.648 22.0002 10.263V7.893C22.0002 4.368 19.7332 2 16.3592 2H7.64124C4.26724 2 2.00024 4.368 2.00024 7.893V16.107C2.00024 19.632 4.26724 22 7.64124 22ZM8.85384 11.3391C7.44284 11.3391 6.29584 10.1911 6.29584 8.7801C6.29584 7.3701 7.44284 6.2221 8.85384 6.2221C10.2648 6.2221 11.4118 7.3701 11.4118 8.7801C11.4118 10.1911 10.2648 11.3391 8.85384 11.3391ZM8.85384 7.6181C8.21284 7.6181 7.69084 8.1391 7.69084 8.7801C7.69084 9.4221 8.21284 9.9431 8.85384 9.9431C9.49584 9.9431 10.0168 9.4221 10.0168 8.7801C10.0168 8.1391 9.49584 7.6181 8.85384 7.6181Z" fill="#212121"/>
</svg>
