<svg width="24" height="24" viewBox="0 0 24 24" fill="none" xmlns="http://www.w3.org/2000/svg">
<path fill-rule="evenodd" clip-rule="evenodd" d="M2 11.9998C2 6.48476 6.486 1.99976 12 1.99976C17.514 1.99976 22 6.48476 22 11.9998C22 17.5138 17.514 21.9998 12 21.9998C8.873 21.9998 5.983 20.5768 4.073 18.0978C3.828 17.7788 3.887 17.3218 4.206 17.0778C4.523 16.8318 4.979 16.8928 5.225 17.2098C6.858 19.3298 9.327 20.5458 12 20.5458C16.712 20.5458 20.546 16.7128 20.546 11.9998C20.546 7.28776 16.712 3.45376 12 3.45376C7.288 3.45376 3.454 7.28776 3.454 11.9998C3.454 12.4378 3.487 12.8728 3.552 13.2988C3.612 13.6948 3.34 14.0658 2.943 14.1268C2.544 14.1928 2.175 13.9158 2.115 13.5188C2.039 13.0208 2 12.5098 2 11.9998ZM12 7.45386C11.586 7.45386 11.25 7.78986 11.25 8.20386V12.6239C11.25 13.0379 11.586 13.3739 12 13.3739C12.414 13.3739 12.75 13.0379 12.75 12.6239V8.20386C12.75 7.78986 12.414 7.45386 12 7.45386ZM12.0102 15.0457H12.0002C11.5862 15.0457 11.2552 15.3817 11.2552 15.7957C11.2552 16.2097 11.5962 16.5457 12.0102 16.5457C12.4242 16.5457 12.7602 16.2097 12.7602 15.7957C12.7602 15.3817 12.4242 15.0457 12.0102 15.0457Z" fill="#212121"/>
</svg>
