<svg width="24" height="24" viewBox="0 0 24 24" fill="none" xmlns="http://www.w3.org/2000/svg">
<path fill-rule="evenodd" clip-rule="evenodd" d="M8.25376 1.99976H15.7468C19.6078 1.99976 21.9998 4.39276 21.9998 8.25576V15.7558C21.9998 19.6078 19.6078 21.9998 15.7468 21.9998H8.24376C4.39176 21.9998 1.99976 19.6078 2.00076 15.7528C2.00076 15.3308 2.34376 14.9878 2.76576 14.9878C3.18876 14.9878 3.53076 15.3308 3.53076 15.7528C3.53076 18.7868 5.20176 20.4668 8.25376 20.4668H15.7468C18.7898 20.4668 20.4698 18.7958 20.4698 15.7528V8.25276C20.4698 5.20976 18.7998 3.52976 15.7468 3.52976H8.25276C5.20976 3.52976 3.52976 5.20976 3.52976 8.25276V10.5658V10.5838C3.52976 11.0018 3.19176 11.3398 2.77376 11.3398H2.76476H2.76276C2.34076 11.3398 1.99876 10.9968 1.99976 10.5748V8.25276C1.99976 4.39276 4.40976 1.99976 8.25376 1.99976ZM7.52046 10.8038C8.18146 10.8038 8.71846 11.3408 8.71846 11.9998C8.71846 12.6598 8.18146 13.1968 7.52046 13.1968C6.86046 13.1968 6.32246 12.6598 6.32246 11.9998C6.32246 11.3408 6.86046 10.8038 7.52046 10.8038ZM12 10.8038C12.661 10.8038 13.198 11.3408 13.198 11.9998C13.198 12.6598 12.661 13.1968 12 13.1968C11.34 13.1968 10.802 12.6598 10.802 11.9998C10.802 11.3408 11.34 10.8038 12 10.8038ZM17.677 11.9998C17.677 11.3408 17.14 10.8038 16.479 10.8038C15.819 10.8038 15.281 11.3408 15.281 11.9998C15.281 12.6598 15.819 13.1968 16.479 13.1968C17.14 13.1968 17.677 12.6598 17.677 11.9998Z" fill="#212121"/>
</svg>
