<svg width="24" height="24" viewBox="0 0 24 24" fill="none" xmlns="http://www.w3.org/2000/svg">
<path fill-rule="evenodd" clip-rule="evenodd" d="M2.00024 11.9998C2.00024 6.48476 6.48624 1.99976 12.0002 1.99976C17.5142 1.99976 22.0002 6.48476 22.0002 11.9998C22.0002 17.5138 17.5142 21.9998 12.0002 21.9998C8.87224 21.9998 5.98324 20.5768 4.07324 18.0978C3.82824 17.7788 3.88724 17.3218 4.20524 17.0778C4.52324 16.8318 4.97924 16.8928 5.22524 17.2098C6.85724 19.3298 9.32724 20.5458 12.0002 20.5458C16.7122 20.5458 20.5452 16.7128 20.5452 11.9998C20.5452 7.28776 16.7122 3.45376 12.0002 3.45376C7.28824 3.45376 3.45424 7.28776 3.45424 11.9998C3.45424 12.4378 3.48724 12.8728 3.55224 13.2988C3.61224 13.6948 3.33924 14.0658 2.94324 14.1268C2.54424 14.1928 2.17524 13.9158 2.11424 13.5188C2.03824 13.0208 2.00024 12.5098 2.00024 11.9998ZM7.52044 10.8038C8.18144 10.8038 8.71844 11.3408 8.71844 11.9998C8.71844 12.6598 8.18144 13.1968 7.52044 13.1968C6.86044 13.1968 6.32244 12.6598 6.32244 11.9998C6.32244 11.3408 6.86044 10.8038 7.52044 10.8038ZM11.9999 10.8038C12.6599 10.8038 13.1979 11.3408 13.1979 11.9998C13.1979 12.6598 12.6599 13.1968 11.9999 13.1968C11.3389 13.1968 10.8019 12.6598 10.8019 11.9998C10.8019 11.3408 11.3389 10.8038 11.9999 10.8038ZM17.6769 11.9998C17.6769 11.3408 17.1399 10.8038 16.4789 10.8038C15.8189 10.8038 15.2809 11.3408 15.2809 11.9998C15.2809 12.6598 15.8189 13.1968 16.4789 13.1968C17.1399 13.1968 17.6769 12.6598 17.6769 11.9998Z" fill="#212121"/>
</svg>
