<svg width="24" height="24" viewBox="0 0 24 24" fill="none" xmlns="http://www.w3.org/2000/svg">
<path fill-rule="evenodd" clip-rule="evenodd" d="M7.66549 1.99976H16.3345C19.7235 1.99976 22.0005 4.37776 22.0005 7.91576V16.0838C22.0005 19.6218 19.7225 21.9998 16.3335 21.9998H10.9535C10.5395 21.9998 10.2035 21.6638 10.2035 21.2498C10.2035 20.8358 10.5395 20.4998 10.9535 20.4998H16.3335C18.8645 20.4998 20.5005 18.7668 20.5005 16.0838V7.91576C20.5005 5.23276 18.8645 3.49976 16.3345 3.49976H7.66549C5.13549 3.49976 3.50049 5.23276 3.50049 7.91576V16.0838C3.50049 18.7668 5.13549 20.4998 7.66549 20.4998C8.07949 20.4998 8.41549 20.8358 8.41549 21.2498C8.41549 21.6638 8.07949 21.9998 7.66549 21.9998C4.27649 21.9998 2.00049 19.6218 2.00049 16.0838V7.91576C2.00049 4.37776 4.27649 1.99976 7.66549 1.99976ZM6.46749 10.9324C6.63749 10.5544 7.07949 10.3854 7.45949 10.5564C7.83749 10.7254 8.00549 11.1694 7.83549 11.5474C7.77149 11.6904 7.73949 11.8424 7.73949 11.9994C7.73949 12.6074 8.23349 13.1014 8.84049 13.1014C9.44849 13.1014 9.94249 12.6074 9.94249 11.9994C9.94249 11.3924 9.44849 10.8984 8.84049 10.8984C8.42649 10.8984 8.09049 10.5624 8.09049 10.1484C8.09049 9.73436 8.42649 9.39836 8.84049 9.39836C10.0135 9.39836 10.9945 10.1824 11.3185 11.2494H17.0105C17.4245 11.2494 17.7605 11.5854 17.7605 11.9994V13.8514C17.7605 14.2654 17.4245 14.6014 17.0105 14.6014C16.5965 14.6014 16.2605 14.2654 16.2605 13.8514V12.7494H14.9315V13.8514C14.9315 14.2654 14.5955 14.6014 14.1815 14.6014C13.7675 14.6014 13.4315 14.2654 13.4315 13.8514V12.7494H11.3185C10.9945 13.8174 10.0135 14.6014 8.84049 14.6014C7.40649 14.6014 6.23949 13.4344 6.23949 11.9994C6.23949 11.6284 6.31549 11.2704 6.46749 10.9324Z" fill="#212121"/>
</svg>
