<svg width="24" height="24" viewBox="0 0 24 24" fill="none" xmlns="http://www.w3.org/2000/svg">
<path fill-rule="evenodd" clip-rule="evenodd" d="M2 11.9998C2 6.48476 6.486 1.99976 12 1.99976C17.514 1.99976 22 6.48476 22 11.9998C22 17.5138 17.514 21.9998 12 21.9998C10.605 21.9998 9.255 21.7188 7.987 21.1618C7.621 21.0018 7.455 20.5748 7.615 20.2088C7.775 19.8408 8.201 19.6758 8.569 19.8368C9.652 20.3118 10.806 20.5528 12 20.5528C16.715 20.5528 20.552 16.7148 20.552 11.9998C20.552 7.28376 16.715 3.44776 12 3.44776C7.284 3.44776 3.448 7.28376 3.448 11.9998C3.448 13.8468 4.026 15.6038 5.122 17.0838C5.359 17.4048 5.292 17.8578 4.971 18.0958C4.649 18.3348 4.196 18.2688 3.958 17.9448C2.677 16.2158 2 14.1598 2 11.9998ZM10.8198 15.9692H10.8558C11.1488 15.9622 11.7548 15.7102 11.7608 15.7072C12.7788 15.2782 14.7938 13.9542 15.6078 13.0782L15.6568 13.0262C15.7568 12.9202 15.9058 12.7552 15.9408 12.7082C16.0908 12.5012 16.1708 12.2552 16.1708 12.0002C16.1708 11.7312 16.0798 11.4662 15.9128 11.2532C15.8858 11.2192 15.7698 11.0932 15.6758 10.9942L15.5968 10.9092C14.8048 10.0642 12.7428 8.67316 11.6598 8.25316C11.4948 8.18816 11.0868 8.03616 10.8638 8.03016C10.6518 8.02716 10.4468 8.07216 10.2508 8.17516C10.0078 8.30716 9.81585 8.51916 9.71385 8.76616C9.63885 8.94216 9.53885 9.46516 9.53785 9.47316C9.43285 10.0522 9.37285 10.9732 9.37485 11.9992C9.37285 12.9692 9.42685 13.8582 9.52185 14.4362C9.52285 14.4422 9.63585 15.0892 9.75385 15.3182C9.95985 15.7162 10.3778 15.9692 10.8198 15.9692ZM10.9618 9.73316C10.9698 9.68716 10.9838 9.61916 10.9988 9.55016C11.0528 9.57016 11.1008 9.58816 11.1318 9.60016C11.9988 9.93716 13.9098 11.2252 14.5368 11.8962L14.6208 11.9852C14.6233 11.9877 14.6256 11.9902 14.6279 11.9927L14.6279 11.9927C14.6301 11.9952 14.6324 11.9977 14.6348 12.0002C14.6238 12.0102 14.6138 12.0212 14.6048 12.0312C14.6038 12.0332 14.5518 12.0922 14.5468 12.0912C13.9398 12.7472 12.1258 13.9822 11.1998 14.3722C11.176 14.3819 11.1453 14.3938 11.1117 14.4067L11.1116 14.4068C11.0763 14.4204 11.0378 14.4353 11.0008 14.4502C10.9798 14.3582 10.9608 14.2632 10.9508 14.2012C10.8688 13.7062 10.8208 12.8822 10.8218 11.9992C10.8208 11.0832 10.8748 10.2142 10.9618 9.73316Z" fill="#212121"/>
</svg>
