<svg width="24" height="24" viewBox="0 0 24 24" fill="none" xmlns="http://www.w3.org/2000/svg">
<path fill-rule="evenodd" clip-rule="evenodd" d="M22 10.822C22 11.239 21.661 11.578 21.244 11.578H21.235V11.56C20.813 11.56 20.471 11.219 20.47 10.797V10.795V8.253C20.47 5.2 18.8 3.53 15.756 3.53H8.256C5.21 3.53 3.53 5.21 3.53 8.253V15.753C3.53 18.787 5.21 20.467 8.253 20.467H15.753C18.796 20.467 20.467 18.787 20.467 15.753C20.467 15.331 20.809 14.988 21.232 14.988C21.655 14.988 21.997 15.331 21.997 15.753C22 19.608 19.608 22 15.756 22H8.253C4.392 22 2 19.608 2 15.756V8.256C2 4.392 4.392 2 8.253 2H15.753C19.59 2 22 4.392 22 8.253V10.822ZM10.8136 13.3135L15.0296 9.0965C15.3226 8.8035 15.7976 8.8035 16.0906 9.0965C16.3836 9.3895 16.3836 9.8645 16.0906 10.1575L11.3436 14.9045C11.2026 15.0445 11.0116 15.1235 10.8136 15.1235C10.6136 15.1235 10.4236 15.0445 10.2826 14.9045L7.9096 12.5305C7.6166 12.2375 7.6166 11.7625 7.9096 11.4695C8.2026 11.1765 8.6776 11.1765 8.9706 11.4695L10.8136 13.3135Z" fill="#212121"/>
</svg>
