<svg width="24" height="24" viewBox="0 0 24 24" fill="none" xmlns="http://www.w3.org/2000/svg">
<path fill-rule="evenodd" clip-rule="evenodd" d="M2.774 11.3398C3.192 11.3398 3.53 11.0018 3.53 10.5838V10.5658V8.25276C3.53 5.20976 5.21 3.52976 8.253 3.52976H15.747C18.8 3.52976 20.47 5.20976 20.47 8.25276V15.7528C20.47 18.7958 18.79 20.4668 15.747 20.4668H8.254C5.202 20.4668 3.531 18.7868 3.531 15.7528C3.531 15.3308 3.189 14.9878 2.766 14.9878C2.343 14.9878 2.001 15.3308 2.001 15.7528C2 19.6078 4.392 21.9998 8.244 21.9998H15.747C19.608 21.9998 22 19.6078 22 15.7558V8.25576C22 4.39276 19.608 1.99976 15.747 1.99976H8.254C4.41 1.99976 2 4.39276 2 8.25276V10.5748C1.999 10.9968 2.341 11.3398 2.763 11.3398H2.765H2.774ZM11.2502 7.63356C11.2502 7.21956 11.5862 6.88356 12.0002 6.88356C12.4142 6.88356 12.7502 7.21956 12.7502 7.63356V11.5686L15.7762 13.3726C16.1312 13.5856 16.2482 14.0456 16.0362 14.4016C15.8962 14.6366 15.6462 14.7676 15.3912 14.7676C15.2602 14.7676 15.1282 14.7336 15.0072 14.6616L11.6162 12.6386C11.3892 12.5026 11.2502 12.2576 11.2502 11.9936V7.63356Z" fill="#212121"/>
</svg>
