<svg width="24" height="24" viewBox="0 0 24 24" fill="none" xmlns="http://www.w3.org/2000/svg">
<path fill-rule="evenodd" clip-rule="evenodd" d="M9.87651 15.2065C6.03251 15.2065 2.74951 15.7875 2.74951 18.1155C2.74951 20.4435 6.01251 21.0455 9.87651 21.0455C13.7215 21.0455 17.0035 20.4635 17.0035 18.1365C17.0035 15.8095 13.7415 15.2065 9.87651 15.2065Z" stroke="#212121" stroke-width="1.5" stroke-linecap="round" stroke-linejoin="round"/>
<path opacity="0.4" fill-rule="evenodd" clip-rule="evenodd" d="M9.8766 11.886C12.3996 11.886 14.4446 9.841 14.4446 7.318C14.4446 4.795 12.3996 2.75 9.8766 2.75C7.3546 2.75 5.3096 4.795 5.3096 7.318C5.3006 9.832 7.3306 11.877 9.8456 11.886H9.8766Z" stroke="#212121" stroke-width="1.5" stroke-linecap="round" stroke-linejoin="round"/>
<path d="M19.2036 8.66943V12.6794" stroke="#212121" stroke-width="1.5" stroke-linecap="round" stroke-linejoin="round"/>
<path d="M21.2494 10.6743H17.1594" stroke="#212121" stroke-width="1.5" stroke-linecap="round" stroke-linejoin="round"/>
</svg>
