<svg width="24" height="24" viewBox="0 0 24 24" fill="none" xmlns="http://www.w3.org/2000/svg">
<path fill-rule="evenodd" clip-rule="evenodd" d="M16.5136 21.4998H8.16579C5.09943 21.4998 2.74703 20.3922 3.41522 15.9346L4.19325 9.89339C4.60515 7.66913 6.02392 6.81787 7.26877 6.81787H17.4473C18.7104 6.81787 20.0468 7.7332 20.5228 9.89339L21.3008 15.9346C21.8683 19.8888 19.58 21.4998 16.5136 21.4998Z" stroke="#212121" stroke-width="1.5" stroke-linecap="round" stroke-linejoin="round"/>
<path opacity="0.4" d="M16.651 6.59824C16.651 4.21216 14.7167 2.27787 12.3306 2.27787V2.27787C11.1816 2.273 10.078 2.72603 9.26381 3.53679C8.44963 4.34754 7.99193 5.44923 7.99194 6.59824H7.99194" stroke="#212121" stroke-width="1.5" stroke-linecap="round" stroke-linejoin="round"/>
<path d="M15.2962 11.1017H15.2505" stroke="#212121" stroke-width="1.5" stroke-linecap="round" stroke-linejoin="round"/>
<path d="M9.46566 11.1017H9.41989" stroke="#212121" stroke-width="1.5" stroke-linecap="round" stroke-linejoin="round"/>
</svg>
