<svg width="24" height="24" viewBox="0 0 24 24" fill="none" xmlns="http://www.w3.org/2000/svg">
<path opacity="0.4" d="M3.09253 9.40445H20.9165" stroke="#212121" stroke-width="1.5" stroke-linecap="round" stroke-linejoin="round"/>
<path opacity="0.4" fill-rule="evenodd" clip-rule="evenodd" d="M6.80786 13.3096C6.80786 12.8954 7.14365 12.5596 7.55786 12.5596H7.56713C7.98134 12.5596 8.31713 12.8954 8.31713 13.3096C8.31713 13.7238 7.98134 14.0596 7.56713 14.0596H7.55786C7.14365 14.0596 6.80786 13.7238 6.80786 13.3096ZM12.0046 12.5596C11.5904 12.5596 11.2546 12.8954 11.2546 13.3096C11.2546 13.7238 11.5904 14.0596 12.0046 14.0596H12.0138C12.4281 14.0596 12.7638 13.7238 12.7638 13.3096C12.7638 12.8954 12.4281 12.5596 12.0138 12.5596H12.0046ZM16.442 12.5596C16.0278 12.5596 15.692 12.8954 15.692 13.3096C15.692 13.7238 16.0278 14.0596 16.442 14.0596H16.4513C16.8655 14.0596 17.2013 13.7238 17.2013 13.3096C17.2013 12.8954 16.8655 12.5596 16.4513 12.5596H16.442ZM16.442 16.446C16.0278 16.446 15.692 16.7818 15.692 17.196C15.692 17.6103 16.0278 17.946 16.442 17.946H16.4513C16.8655 17.946 17.2013 17.6103 17.2013 17.196C17.2013 16.7818 16.8655 16.446 16.4513 16.446H16.442ZM11.2546 17.196C11.2546 16.7818 11.5904 16.446 12.0046 16.446H12.0138C12.4281 16.446 12.7638 16.7818 12.7638 17.196C12.7638 17.6103 12.4281 17.946 12.0138 17.946H12.0046C11.5904 17.946 11.2546 17.6103 11.2546 17.196ZM7.55786 16.446C7.14365 16.446 6.80786 16.7818 6.80786 17.196C6.80786 17.6103 7.14365 17.946 7.55786 17.946H7.56713C7.98134 17.946 8.31713 17.6103 8.31713 17.196C8.31713 16.7818 7.98134 16.446 7.56713 16.446H7.55786Z" fill="#212121"/>
<path d="M16.0438 2V5.29078" stroke="#212121" stroke-width="1.5" stroke-linecap="round" stroke-linejoin="round"/>
<path d="M7.9654 2V5.29078" stroke="#212121" stroke-width="1.5" stroke-linecap="round" stroke-linejoin="round"/>
<path fill-rule="evenodd" clip-rule="evenodd" d="M16.2383 3.5791H7.77096C4.83427 3.5791 3 5.21504 3 8.22213V17.2718C3 20.3261 4.83427 21.9999 7.77096 21.9999H16.229C19.175 21.9999 21 20.3545 21 17.3474V8.22213C21.0092 5.21504 19.1842 3.5791 16.2383 3.5791Z" stroke="#212121" stroke-width="1.5" stroke-linecap="round" stroke-linejoin="round"/>
</svg>
