<svg width="24" height="24" viewBox="0 0 24 24" fill="none" xmlns="http://www.w3.org/2000/svg">
<path fill-rule="evenodd" clip-rule="evenodd" d="M15.0402 4.0515C16.0502 4.4535 16.3592 5.8535 16.7722 6.3035C17.1852 6.7535 17.7762 6.9065 18.1032 6.9065C19.8412 6.9065 21.2502 8.3155 21.2502 10.0525V15.8475C21.2502 18.1775 19.3602 20.0675 17.0302 20.0675H6.97024C4.63924 20.0675 2.75024 18.1775 2.75024 15.8475V10.0525C2.75024 8.3155 4.15924 6.9065 5.89724 6.9065C6.22324 6.9065 6.81424 6.7535 7.22824 6.3035C7.64124 5.8535 7.94924 4.4535 8.95924 4.0515C9.97024 3.6495 14.0302 3.6495 15.0402 4.0515Z" stroke="#212121" stroke-width="1.5" stroke-linecap="round" stroke-linejoin="round"/>
<path opacity="0.4" d="M17.4957 9.7002H17.5047" stroke="#212121" stroke-width="2" stroke-linecap="round" stroke-linejoin="round"/>
<path opacity="0.4" fill-rule="evenodd" clip-rule="evenodd" d="M15.179 13.3284C15.179 11.5724 13.756 10.1494 12 10.1494C10.244 10.1494 8.82104 11.5724 8.82104 13.3284C8.82104 15.0844 10.244 16.5074 12 16.5074C13.756 16.5074 15.179 15.0844 15.179 13.3284Z" stroke="#212121" stroke-width="1.5" stroke-linecap="round" stroke-linejoin="round"/>
</svg>
