<svg width="24" height="24" viewBox="0 0 24 24" fill="none" xmlns="http://www.w3.org/2000/svg">
<path opacity="0.4" d="M11.2502 16.2697C11.2502 15.8557 11.5862 15.5137 12.0002 15.5137C12.4142 15.5137 12.7502 15.8447 12.7502 16.2587V16.2697C12.7502 16.6837 12.4142 17.0197 12.0002 17.0197C11.5862 17.0197 11.2502 16.6837 11.2502 16.2697Z" fill="#212121"/>
<path d="M4.7956 20.418H19.2776C20.4246 20.358 21.3066 19.381 21.2476 18.234C21.2346 18.002 21.1846 17.773 21.0966 17.559L13.8196 4.82298C13.2636 3.81798 11.9986 3.45398 10.9936 4.01098C10.6516 4.19898 10.3696 4.48098 10.1806 4.82298L2.9036 17.559C2.4716 18.623 2.9836 19.835 4.0466 20.268C4.2626 20.355 4.4906 20.405 4.7226 20.418" stroke="#212121" stroke-width="1.5" stroke-linecap="round" stroke-linejoin="round"/>
<path opacity="0.4" d="M11.9897 13.3964V10.2964" stroke="#212121" stroke-width="1.5" stroke-linecap="round" stroke-linejoin="round"/>
</svg>
