<svg width="24" height="24" viewBox="0 0 24 24" fill="none" xmlns="http://www.w3.org/2000/svg">
<path d="M4.79438 7.05575C4.79438 5.80675 5.80738 4.79375 7.05538 4.79375H8.08438C8.68038 4.79375 9.25338 4.55775 9.67738 4.13675L10.3964 3.41675C11.2774 2.53175 12.7094 2.52775 13.5944 3.40875L13.6034 3.41675L14.3234 4.13675C14.7464 4.55775 15.3194 4.79375 15.9164 4.79375H16.9444C18.1934 4.79375 19.2064 5.80675 19.2064 7.05575V8.08275C19.2064 8.68075 19.4424 9.25275 19.8634 9.67675L20.5834 10.3967C21.4684 11.2777 21.4734 12.7087 20.5924 13.5947L20.5834 13.6037L19.8634 14.3237C19.4424 14.7457 19.2064 15.3197 19.2064 15.9157V16.9447C19.2064 18.1937 18.1934 19.2057 16.9444 19.2057H15.9164C15.3194 19.2057 14.7464 19.4427 14.3234 19.8637L13.6034 20.5827C12.7234 21.4687 11.2914 21.4727 10.4054 20.5917C10.4024 20.5887 10.3994 20.5857 10.3964 20.5827L9.67738 19.8637C9.25338 19.4427 8.68038 19.2057 8.08438 19.2057H7.05538C5.80738 19.2057 4.79438 18.1937 4.79438 16.9447V15.9157C4.79438 15.3197 4.55738 14.7457 4.13638 14.3237L3.41738 13.6037C2.53138 12.7227 2.52738 11.2907 3.40838 10.4057L3.41738 10.3967L4.13638 9.67675C4.55738 9.25275 4.79438 8.68075 4.79438 8.08275V7.05575" stroke="#212121" stroke-width="1.5" stroke-linecap="round" stroke-linejoin="round"/>
<path opacity="0.4" d="M9.43018 14.5697L14.5702 9.42969" stroke="#212121" stroke-width="1.5" stroke-linecap="round" stroke-linejoin="round"/>
<path opacity="0.4" d="M14.5669 15.3225C14.3669 15.3225 14.1769 15.2425 14.0369 15.1025C13.9669 15.0325 13.9169 14.9425 13.8769 14.8525C13.8369 14.7625 13.8169 14.6735 13.8169 14.5725C13.8169 14.4725 13.8369 14.3725 13.8769 14.2825C13.9169 14.1925 13.9669 14.1125 14.0369 14.0425C14.3169 13.7625 14.8169 13.7625 15.0969 14.0425C15.1669 14.1125 15.2269 14.1925 15.2669 14.2825C15.2969 14.3725 15.3169 14.4725 15.3169 14.5725C15.3169 14.6735 15.2969 14.7625 15.2669 14.8525C15.2269 14.9425 15.1669 15.0325 15.0969 15.1025C14.9569 15.2425 14.7669 15.3225 14.5669 15.3225Z" fill="#212121"/>
<path opacity="0.4" d="M9.42676 10.1826C9.32676 10.1826 9.23676 10.1616 9.14676 10.1216C9.05676 10.0816 8.96676 10.0326 8.89676 9.96264C8.82676 9.88264 8.77676 9.80264 8.73676 9.71264C8.69676 9.62164 8.67676 9.53264 8.67676 9.43264C8.67676 9.33164 8.69676 9.23264 8.73676 9.14264C8.77676 9.05264 8.82676 8.96264 8.89676 8.90264C9.18676 8.62164 9.67676 8.62164 9.95676 8.90264C10.0968 9.04164 10.1768 9.23264 10.1768 9.43264C10.1768 9.53264 10.1668 9.62164 10.1268 9.71264C10.0868 9.80264 10.0268 9.88264 9.95676 9.96264C9.88676 10.0326 9.80676 10.0816 9.71676 10.1216C9.62676 10.1616 9.52676 10.1826 9.42676 10.1826Z" fill="#212121"/>
</svg>
