<svg width="24" height="24" viewBox="0 0 24 24" fill="none" xmlns="http://www.w3.org/2000/svg">
<path fill-rule="evenodd" clip-rule="evenodd" d="M17.2779 13.8891C17.9527 13.8891 18.519 14.446 18.4158 15.1123C17.8106 19.0323 14.4548 21.9428 10.4074 21.9428C5.92952 21.9428 2.30005 18.3134 2.30005 13.8365C2.30005 10.1481 5.10215 6.7123 8.25689 5.93546C8.93479 5.76809 9.62952 6.24493 9.62952 6.94283C9.62952 11.6712 9.78847 12.8944 10.6864 13.5597C11.5843 14.2249 12.64 13.8891 17.2779 13.8891Z" stroke="#212121" stroke-width="1.5" stroke-linecap="round" stroke-linejoin="round"/>
<path opacity="0.4" fill-rule="evenodd" clip-rule="evenodd" d="M21.6926 9.9517C21.7463 6.9138 18.0147 2.01696 13.4674 2.10117C13.1137 2.10749 12.8305 2.40222 12.8147 2.75485C12.7 5.25275 12.8547 8.48959 12.9411 9.95696C12.9674 10.4138 13.3263 10.7727 13.7821 10.7991C15.2905 10.8854 18.6453 11.0033 21.1074 10.6306C21.4421 10.5801 21.6874 10.2896 21.6926 9.9517Z" stroke="#212121" stroke-width="1.5" stroke-linecap="round" stroke-linejoin="round"/>
</svg>
