<svg width="24" height="24" viewBox="0 0 24 24" fill="none" xmlns="http://www.w3.org/2000/svg">
<path opacity="0.4" d="M9.76045 14.3667C9.18545 13.7927 8.83545 13.0127 8.83545 12.1377C8.83545 10.3847 10.2474 8.97168 11.9994 8.97168C12.8664 8.97168 13.6644 9.32268 14.2294 9.89668" stroke="#212121" stroke-width="1.5" stroke-linecap="round" stroke-linejoin="round"/>
<path opacity="0.4" d="M15.1046 12.6987C14.8726 13.9887 13.8566 15.0067 12.5676 15.2407" stroke="#212121" stroke-width="1.5" stroke-linecap="round" stroke-linejoin="round"/>
<path d="M6.65451 17.472C5.06751 16.226 3.72351 14.406 2.74951 12.137C3.73351 9.85798 5.08651 8.02798 6.68351 6.77198C8.27051 5.51598 10.1015 4.83398 11.9995 4.83398C13.9085 4.83398 15.7385 5.52598 17.3355 6.79098" stroke="#212121" stroke-width="1.5" stroke-linecap="round" stroke-linejoin="round"/>
<path d="M19.4475 8.99072C20.1355 9.90472 20.7405 10.9597 21.2495 12.1367C19.2825 16.6937 15.8065 19.4387 11.9995 19.4387C11.1365 19.4387 10.2855 19.2987 9.46753 19.0257" stroke="#212121" stroke-width="1.5" stroke-linecap="round" stroke-linejoin="round"/>
<path d="M19.8868 4.24951L4.11279 20.0235" stroke="#212121" stroke-width="1.5" stroke-linecap="round" stroke-linejoin="round"/>
</svg>
