<svg width="24" height="24" viewBox="0 0 24 24" fill="none" xmlns="http://www.w3.org/2000/svg">
<path fill-rule="evenodd" clip-rule="evenodd" d="M14.7362 2.76172H8.08424C6.02524 2.76172 4.25024 4.43072 4.25024 6.49072V17.2277C4.25024 19.4037 5.90824 21.1147 8.08424 21.1147H16.0722C18.1322 21.1147 19.8022 19.2877 19.8022 17.2277V8.03772L14.7362 2.76172Z" stroke="#212121" stroke-width="1.5" stroke-linecap="round" stroke-linejoin="round"/>
<path d="M14.4736 2.75V5.659C14.4736 7.079 15.6226 8.231 17.0426 8.234C18.3586 8.237 19.7056 8.238 19.7966 8.232" stroke="#212121" stroke-width="1.5" stroke-linecap="round" stroke-linejoin="round"/>
<path opacity="0.4" fill-rule="evenodd" clip-rule="evenodd" d="M12.1717 8.91073C12.0309 8.76938 11.8397 8.68992 11.6402 8.68994C11.4407 8.68996 11.2494 8.76945 11.1087 8.91082L8.27071 11.7618C7.97848 12.0554 7.97957 12.5303 8.27313 12.8225C8.56669 13.1147 9.04156 13.1136 9.33379 12.8201L10.8907 11.256V16.0134C10.8907 16.4276 11.2265 16.7634 11.6407 16.7634C12.0549 16.7634 12.3907 16.4276 12.3907 16.0134V11.2565L13.9478 12.8202C14.2401 13.1137 14.7149 13.1147 15.0085 12.8224C15.302 12.5301 15.303 12.0552 15.0107 11.7617L12.1717 8.91073Z" fill="#212121"/>
</svg>
