<svg width="24" height="24" viewBox="0 0 24 24" fill="none" xmlns="http://www.w3.org/2000/svg">
<path fill-rule="evenodd" clip-rule="evenodd" d="M14.7365 2.76172H8.08449C6.02549 2.76172 4.25049 4.43072 4.25049 6.49072V17.2277C4.25049 19.4037 5.90849 21.1147 8.08449 21.1147H16.0725C18.1325 21.1147 19.8025 19.2877 19.8025 17.2277V8.03772L14.7365 2.76172Z" stroke="#212121" stroke-width="1.5" stroke-linecap="round" stroke-linejoin="round"/>
<path d="M14.4739 2.75V5.659C14.4739 7.079 15.6229 8.231 17.0429 8.234C18.3589 8.237 19.7059 8.238 19.7969 8.232" stroke="#212121" stroke-width="1.5" stroke-linecap="round" stroke-linejoin="round"/>
<path opacity="0.4" fill-rule="evenodd" clip-rule="evenodd" d="M12.3907 9.44043C12.3907 9.02622 12.0549 8.69043 11.6407 8.69043C11.2265 8.69043 10.8907 9.02622 10.8907 9.44043V14.1978L9.33379 12.6337C9.04156 12.3402 8.56669 12.3391 8.27313 12.6313C7.97957 12.9235 7.97848 13.3984 8.27071 13.692L11.1087 16.543C11.2494 16.6843 11.4407 16.7638 11.6402 16.7638C11.8296 16.7639 12.0115 16.6922 12.1499 16.564C12.1588 16.5558 12.1675 16.5473 12.176 16.5387L15.0107 13.6921C15.303 13.3985 15.302 12.9237 15.0085 12.6314C14.7149 12.3391 14.2401 12.3401 13.9478 12.6336L12.3907 14.1973V9.44043Z" fill="#212121"/>
</svg>
