<svg width="24" height="24" viewBox="0 0 24 24" fill="none" xmlns="http://www.w3.org/2000/svg">
<path opacity="0.4" fill-rule="evenodd" clip-rule="evenodd" d="M16.3345 2.75H7.66549C4.64449 2.75 2.75049 4.889 2.75049 7.916V16.084C2.75049 19.111 4.63549 21.25 7.66549 21.25H16.3335C19.3645 21.25 21.2505 19.111 21.2505 16.084V7.916C21.2505 4.889 19.3645 2.75 16.3345 2.75Z" stroke="#212121" stroke-width="1.5" stroke-linecap="round" stroke-linejoin="round"/>
<path fill-rule="evenodd" clip-rule="evenodd" d="M10.6925 11.9999C10.6925 13.0219 9.8635 13.8519 8.8405 13.8519C7.8185 13.8519 6.9895 13.0219 6.9895 11.9999C6.9895 10.9779 7.8185 10.1479 8.8405 10.1479C9.8635 10.1479 10.6925 10.9779 10.6925 11.9999Z" stroke="#212121" stroke-width="1.5" stroke-linecap="round" stroke-linejoin="round"/>
<path d="M10.6924 12H17.0104V13.852" stroke="#212121" stroke-width="1.5" stroke-linecap="round" stroke-linejoin="round"/>
<path d="M14.1816 13.8515V11.9995" stroke="#212121" stroke-width="1.5" stroke-linecap="round" stroke-linejoin="round"/>
</svg>
