<svg width="24" height="24" viewBox="0 0 24 24" fill="none" xmlns="http://www.w3.org/2000/svg">
<path fill-rule="evenodd" clip-rule="evenodd" d="M18.865 5.12401C19.302 5.27701 19.594 5.68901 19.594 6.15201V12.925C19.594 14.818 18.905 16.625 17.691 18.025C17.079 18.73 16.307 19.279 15.486 19.723L11.928 21.645L8.364 19.722C7.541 19.278 6.768 18.73 6.156 18.024C4.94 16.624 4.25 14.816 4.25 12.921V6.15201C4.25 5.68901 4.542 5.27701 4.979 5.12401L11.561 2.81101C11.795 2.72901 12.05 2.72901 12.283 2.81101L18.865 5.12401Z" stroke="#212121" stroke-width="1.5" stroke-linecap="round" stroke-linejoin="round"/>
<path opacity="0.4" fill-rule="evenodd" clip-rule="evenodd" d="M10.5733 9.55854C10.2804 9.26564 9.80553 9.26564 9.51264 9.55854C9.21975 9.85143 9.21975 10.3263 9.51264 10.6192L10.8614 11.968L9.51285 13.3165C9.21996 13.6094 9.21996 14.0843 9.51285 14.3772C9.80575 14.6701 10.2806 14.6701 10.5735 14.3772L11.9221 13.0286L13.2706 14.3772C13.5635 14.6701 14.0384 14.6701 14.3313 14.3772C14.6242 14.0843 14.6242 13.6094 14.3313 13.3165L12.9827 11.968L14.3315 10.6192C14.6244 10.3263 14.6244 9.85143 14.3315 9.55854C14.0386 9.26564 13.5637 9.26564 13.2709 9.55854L11.9221 10.9073L10.5733 9.55854Z" fill="#212121"/>
</svg>
