<svg width="24" height="24" viewBox="0 0 24 24" fill="none" xmlns="http://www.w3.org/2000/svg">
<path fill-rule="evenodd" clip-rule="evenodd" d="M17.8572 20.417C19.7322 20.417 21.2502 18.898 21.2502 17.024V14.324C20.0102 14.324 19.0102 13.324 19.0102 12.085C19.0102 10.845 20.0102 9.846 21.2502 9.846L21.2482 7.143C21.2482 5.269 19.7302 3.75 17.8562 3.75H6.14424C4.27024 3.75 2.75124 5.269 2.75124 7.143L2.75024 9.933C3.98924 9.933 4.98924 10.845 4.98924 12.085C4.98924 13.324 3.98924 14.324 2.75024 14.324V17.024C2.75024 18.898 4.26824 20.417 6.14224 20.417H17.8572Z" stroke="#212121" stroke-width="1.5" stroke-linecap="round" stroke-linejoin="round"/>
<path opacity="0.4" fill-rule="evenodd" clip-rule="evenodd" d="M11.9998 13.8545L13.7398 14.7695C13.9028 14.8545 14.0938 14.7165 14.0628 14.5355L13.7298 12.5965L15.1388 11.2255C15.2708 11.0965 15.1978 10.8735 15.0158 10.8465L13.0698 10.5635L12.1988 8.79953C12.1178 8.63453 11.8828 8.63453 11.8008 8.79953L10.9298 10.5635L8.98481 10.8465C8.80281 10.8735 8.72981 11.0965 8.86181 11.2255L10.2698 12.5965L9.93681 14.5355C9.90581 14.7165 10.0968 14.8545 10.2598 14.7695L11.9998 13.8545Z" stroke="#212121" stroke-width="1.5" stroke-linecap="round" stroke-linejoin="round"/>
</svg>
