<svg width="24" height="24" viewBox="0 0 24 24" fill="none" xmlns="http://www.w3.org/2000/svg">
<path opacity="0.4" fill-rule="evenodd" clip-rule="evenodd" d="M5.46436 10.9321C5.46436 10.5179 5.12857 10.1821 4.71436 10.1821C4.30014 10.1821 3.96436 10.5179 3.96436 10.9321C3.96436 15.1831 7.21628 18.6736 11.3685 19.052V21.147C11.3685 21.5612 11.7043 21.897 12.1185 21.897C12.5328 21.897 12.8685 21.5612 12.8685 21.147V19.0519C17.0205 18.6732 20.272 15.1829 20.272 10.9321C20.272 10.5179 19.9362 10.1821 19.522 10.1821C19.1078 10.1821 18.772 10.5179 18.772 10.9321C18.772 14.6074 15.7935 17.5859 12.1182 17.5859C8.44285 17.5859 5.46436 14.6074 5.46436 10.9321Z" fill="#212121"/>
<path fill-rule="evenodd" clip-rule="evenodd" d="M12.2447 14.5843H11.9923C9.97132 14.5843 8.33228 12.9462 8.33228 10.9243V6.37387C8.33228 4.35291 9.97132 2.71387 11.9923 2.71387H12.2447C14.2656 2.71387 15.9047 4.35291 15.9047 6.37387V10.9243C15.9047 12.9462 14.2656 14.5843 12.2447 14.5843Z" stroke="#212121" stroke-width="1.5" stroke-linecap="round" stroke-linejoin="round"/>
</svg>
