<svg width="24" height="24" viewBox="0 0 24 24" fill="none" xmlns="http://www.w3.org/2000/svg">
<path opacity="0.4" fill-rule="evenodd" clip-rule="evenodd" d="M5.46436 10.9321C5.46436 10.5179 5.12857 10.1821 4.71436 10.1821C4.30014 10.1821 3.96436 10.5179 3.96436 10.9321C3.96436 15.1831 7.21627 18.6736 11.3685 19.052V21.1469C11.3685 21.5611 11.7043 21.8969 12.1185 21.8969C12.5328 21.8969 12.8685 21.5611 12.8685 21.1469V19.0519C17.0204 18.6732 20.2729 15.183 20.2729 10.9321C20.2729 10.5179 19.9371 10.1821 19.5229 10.1821C19.1087 10.1821 18.7729 10.5179 18.7729 10.9321C18.7729 14.6073 15.7936 17.5859 12.1182 17.5859C8.44285 17.5859 5.46436 14.6074 5.46436 10.9321Z" fill="#212121"/>
<path fill-rule="evenodd" clip-rule="evenodd" d="M11.9923 3.46387C10.3855 3.46387 9.08228 4.76713 9.08228 6.37387V10.9243C9.08228 12.5319 10.3854 13.8343 11.9923 13.8343H12.2447C13.8523 13.8343 15.1547 12.532 15.1547 10.9243V10.7985H13.0492C12.635 10.7985 12.2992 10.4627 12.2992 10.0485C12.2992 9.63424 12.635 9.29846 13.0492 9.29846H15.1547V7.62695H14.0016C13.5874 7.62695 13.2516 7.29116 13.2516 6.87695C13.2516 6.46273 13.5874 6.12695 14.0016 6.12695H15.1443C15.019 4.6356 13.769 3.46387 12.2447 3.46387H11.9923ZM7.58228 6.37387C7.58228 3.9387 9.55711 1.96387 11.9923 1.96387H12.2447C14.6809 1.96387 16.6547 3.93883 16.6547 6.37387V10.9243C16.6547 13.3605 14.6808 15.3343 12.2447 15.3343H11.9923C9.55724 15.3343 7.58228 13.3606 7.58228 10.9243V6.37387Z" fill="#212121"/>
</svg>
