<svg width="24" height="24" viewBox="0 0 24 24" fill="none" xmlns="http://www.w3.org/2000/svg">
<path d="M6.09491 16.6499C5.85991 16.5769 5.64691 16.4689 5.45991 16.3089C4.69491 15.6559 4.75091 13.9119 4.75091 12.6329C4.75091 11.3549 4.69491 9.60995 5.45991 8.95795C6.16891 8.35095 6.67291 8.50995 7.96991 8.40695C9.26591 8.30395 12.0089 4.34895 14.1259 5.59895C14.6109 5.99295 14.8959 6.58095 15.0639 7.48595" stroke="#212121" stroke-width="1.5" stroke-linecap="round" stroke-linejoin="round"/>
<path d="M15.2835 14.6675C15.2465 17.5405 15.0215 18.9395 14.1265 19.6675C13.1465 20.2465 12.0365 19.7145 10.9915 18.9585" stroke="#212121" stroke-width="1.5" stroke-linecap="round" stroke-linejoin="round"/>
<path opacity="0.4" d="M4.75171 20.7495L8.46471 17.0365L15.2837 10.2165L20.7507 4.74951" stroke="#212121" stroke-width="1.5" stroke-linecap="round" stroke-linejoin="round"/>
</svg>
