<svg xmlns="http://www.w3.org/2000/svg" viewBox="0 0 92.75 104.02"><defs><style>.cls-1{fill:#efab00;}.cls-2{fill:#ffbf00;}</style></defs><g id="Layer_2" data-name="Layer 2"><g id="Layer_1-2" data-name="Layer 1"><g id="R"><g id="Layer_9" data-name="Layer 9"><path class="cls-1" d="M0,.3V27.4L46.11,26A28.46,28.46,0,0,1,54,27.1a27.24,27.24,0,0,1,7.8,3.6,16.12,16.12,0,0,1,4.8,9.61,16.17,16.17,0,0,1-4.4,12.4,17.37,17.37,0,0,1-6.6,4.1c-1.4.4-2.3.6-6.8,1-1.8.2-4.21.4-7.21.7-.1,8.6-.2,17.1-.3,25.6a45,45,0,0,0,16.51-.6,46.32,46.32,0,0,0,22.71-12.2,44.59,44.59,0,0,0,8.9-12.9,42.79,42.79,0,0,0,3.3-15.6A38.72,38.72,0,0,0,80.23,12.4a58,58,0,0,0-10-7S68,4.2,65.92,3.2C56.52-1,38.31.1,36.51.3Z"/></g><polygon class="cls-2" points="0 0 85.13 104.02 51.02 104.02 0 40.21 0 0"/><g id="Layer_2-2" data-name="Layer 2"><polygon class="cls-2" points="0 63.51 0 104.02 32.81 104.02 0 63.51"/></g></g></g></g></svg>