<svg width="226" height="220" viewBox="0 0 226 220" fill="none" xmlns="http://www.w3.org/2000/svg">
    <g clip-path="url(#clip0_1344_80763)">
        <path d="M143.389 49.4774H82.659C81.275 49.479 79.9483 50.0296 78.9697 51.0081C77.9911 51.9867 77.4406 53.3135 77.4389 54.6974V189.671L76.7429 189.884L61.8447 194.446C61.1387 194.661 60.376 194.588 59.7243 194.241C59.0725 193.895 58.5848 193.304 58.3683 192.598L14.0531 47.8452C13.8375 47.1391 13.911 46.3763 14.2575 45.7244C14.604 45.0725 15.1952 44.5849 15.9011 44.3686L38.859 37.3389L105.415 16.9667L128.373 9.93697C128.722 9.82944 129.089 9.79187 129.453 9.8264C129.817 9.86092 130.171 9.96688 130.494 10.1382C130.817 10.3095 131.103 10.5428 131.335 10.8248C131.568 11.1067 131.743 11.4318 131.85 11.7814L143.177 48.7813L143.389 49.4774Z" fill="#35383F"/>
        <path d="M156.642 48.7806L142.989 4.1872C142.762 3.44419 142.391 2.75322 141.897 2.15377C141.402 1.55433 140.795 1.05815 140.109 0.693602C139.423 0.329052 138.671 0.103267 137.898 0.0291601C137.125 -0.0449473 136.344 0.0340745 135.601 0.261702L103.324 10.1416L36.7713 30.5173L4.49379 40.4007C2.99435 40.8611 1.73885 41.8976 1.00286 43.2828C0.26688 44.668 0.110547 46.2885 0.568186 47.7888L47.2288 200.191C47.6006 201.402 48.3507 202.462 49.3691 203.215C50.3875 203.969 51.6206 204.376 52.8875 204.377C53.4738 204.378 54.0568 204.29 54.6169 204.116L76.7432 197.344L77.4392 197.128V196.401L76.7432 196.613L54.4117 203.452C53.0881 203.855 51.6586 203.717 50.4367 203.068C49.2147 202.419 48.3002 201.312 47.8935 199.989L1.2365 47.5835C1.03504 46.9282 0.96482 46.2396 1.02987 45.5571C1.09492 44.8746 1.29396 44.2116 1.61559 43.6061C1.93722 43.0007 2.37514 42.4646 2.90425 42.0286C3.43335 41.5926 4.04326 41.2653 4.69905 41.0654L36.9766 31.182L103.529 10.8098L135.807 0.926399C136.304 0.774599 136.821 0.697199 137.341 0.696714C138.457 0.69922 139.543 1.05904 140.44 1.72348C141.337 2.38791 141.997 3.32205 142.325 4.38905L155.914 48.7807L156.13 49.4767H156.854L156.642 48.7806Z" fill="#3F3D56"/>
        <path d="M43.0013 44.4824C42.3305 44.482 41.6776 44.2665 41.1383 43.8678C40.5989 43.469 40.2016 42.9079 40.0045 42.2668L35.5221 27.6256C35.4016 27.2323 35.3598 26.8191 35.3991 26.4097C35.4383 26.0002 35.5578 25.6025 35.7508 25.2393C35.9438 24.8761 36.2064 24.5544 36.5237 24.2927C36.841 24.0309 37.2067 23.8343 37.6001 23.7139L98.8278 4.96903C99.6221 4.72665 100.48 4.80931 101.213 5.19887C101.947 5.58843 102.496 6.25305 102.74 7.04686L107.222 21.6882C107.464 22.4825 107.382 23.3405 106.992 24.0738C106.603 24.8072 105.938 25.3561 105.144 25.6001L43.9163 44.345C43.6198 44.436 43.3114 44.4823 43.0013 44.4824Z" fill="#101010"/>
        <path d="M66.4835 15.6446C70.3275 15.6446 73.4437 12.5284 73.4437 8.68448C73.4437 4.84051 70.3275 1.72437 66.4835 1.72437C62.6396 1.72437 59.5234 4.84051 59.5234 8.68448C59.5234 12.5284 62.6396 15.6446 66.4835 15.6446Z" fill="#101010"/>
        <path d="M66.4835 13.0918C68.9176 13.0918 70.8909 11.1186 70.8909 8.68446C70.8909 6.25034 68.9176 4.2771 66.4835 4.2771C64.0494 4.2771 62.0762 6.25034 62.0762 8.68446C62.0762 11.1186 64.0494 13.0918 66.4835 13.0918Z" fill="#1F222A"/>
        <path d="M210.029 202.6H92.4034C91.6191 202.599 90.8672 202.287 90.3127 201.732C89.7581 201.178 89.4462 200.426 89.4453 199.642V58.6995C89.4462 57.9152 89.7581 57.1634 90.3127 56.6088C90.8672 56.0543 91.6191 55.7423 92.4034 55.7415H210.029C210.813 55.7424 211.565 56.0543 212.12 56.6088C212.674 57.1634 212.986 57.9153 212.987 58.6995V199.642C212.986 200.426 212.674 201.178 212.12 201.732C211.565 202.287 210.813 202.599 210.029 202.6Z" fill="#35383F"/>
        <path d="M155.915 48.7812H82.6602C81.0919 48.7835 79.5884 49.4075 78.4794 50.5165C77.3704 51.6255 76.7464 53.129 76.7441 54.6973V196.614L77.4402 196.402V54.6973C77.4418 53.3134 77.9923 51.9866 78.9709 51.008C79.9495 50.0295 81.2763 49.4789 82.6602 49.4773H156.131L155.915 48.7812ZM219.774 48.7812H82.6602C81.0919 48.7835 79.5884 49.4075 78.4794 50.5165C77.3704 51.6255 76.7464 53.129 76.7441 54.6973V214.084C76.7464 215.652 77.3704 217.156 78.4794 218.265C79.5884 219.374 81.0919 219.998 82.6602 220H219.774C221.343 219.998 222.846 219.374 223.955 218.265C225.064 217.156 225.688 215.652 225.691 214.084V54.6973C225.688 53.129 225.064 51.6255 223.955 50.5165C222.846 49.4075 221.343 48.7835 219.774 48.7812ZM224.994 214.084C224.993 215.468 224.442 216.795 223.464 217.773C222.485 218.752 221.158 219.302 219.774 219.304H82.6602C81.2763 219.302 79.9495 218.752 78.9709 217.773C77.9923 216.795 77.4418 215.468 77.4402 214.084V54.6973C77.4418 53.3134 77.9923 51.9866 78.9709 51.008C79.9495 50.0295 81.2763 49.4789 82.6602 49.4773H219.774C221.158 49.4789 222.485 50.0295 223.464 51.008C224.442 51.9866 224.993 53.3134 224.994 54.6973V214.084Z" fill="#3F3D56"/>
        <path d="M183.233 64.0934H119.2C118.37 64.0925 117.574 63.7622 116.987 63.175C116.4 62.5879 116.069 61.7918 116.068 60.9614V45.6491C116.069 44.8188 116.4 44.0226 116.987 43.4355C117.574 42.8483 118.37 42.518 119.2 42.5171H183.233C184.064 42.518 184.86 42.8483 185.447 43.4355C186.034 44.0226 186.365 44.8188 186.365 45.6491V60.9614C186.365 61.7918 186.034 62.5879 185.447 63.175C184.86 63.7622 184.064 64.0925 183.233 64.0934Z" fill="#101010"/>
        <path d="M151.216 43.5611C155.06 43.5611 158.176 40.4449 158.176 36.601C158.176 32.757 155.06 29.6409 151.216 29.6409C147.372 29.6409 144.256 32.757 144.256 36.601C144.256 40.4449 147.372 43.5611 151.216 43.5611Z" fill="#101010"/>
        <path d="M151.216 40.8405C153.557 40.8405 155.455 38.9425 155.455 36.6012C155.455 34.2598 153.557 32.3618 151.216 32.3618C148.875 32.3618 146.977 34.2598 146.977 36.6012C146.977 38.9425 148.875 40.8405 151.216 40.8405Z" fill="#1F222A"/>
    </g>
    <defs>
        <clipPath id="clip0_1344_80763">
            <rect width="225.381" height="220" fill="white" transform="translate(0.308594)"/>
        </clipPath>
    </defs>
</svg>
