<svg width="18" height="16" viewBox="0 0 18 16" fill="none" xmlns="http://www.w3.org/2000/svg">
    <path opacity="0.4" d="M9.81293 0.594597L11.6683 4.32316C11.805 4.5933 12.0659 4.78089 12.3668 4.82258L16.5344 5.42956C16.7778 5.46374 16.9986 5.59214 17.1478 5.78807C17.2954 5.9815 17.3587 6.22663 17.3229 6.46758C17.2937 6.66768 17.1995 6.85278 17.0553 6.99452L14.0355 9.92184C13.8146 10.1261 13.7146 10.4288 13.768 10.7247L14.5114 14.8402C14.5906 15.3371 14.2614 15.8057 13.768 15.8999C13.5646 15.9324 13.3562 15.8982 13.1728 15.8048L9.45536 13.868C9.17946 13.7288 8.85356 13.7288 8.57767 13.868L4.8602 15.8048C4.40344 16.0475 3.83748 15.8824 3.58326 15.4321C3.48908 15.2529 3.45574 15.0486 3.48658 14.8493L4.23007 10.7331C4.28341 10.4379 4.18256 10.1336 3.96251 9.92934L0.942696 7.00369C0.583452 6.65685 0.572617 6.08572 0.918524 5.72637C0.926026 5.71887 0.934361 5.71053 0.942696 5.70219C1.08606 5.55629 1.27443 5.46374 1.47781 5.43956L5.64537 4.83175C5.94544 4.78923 6.20633 4.6033 6.34386 4.3315L8.13257 0.594597C8.29177 0.274434 8.62184 0.0751662 8.98026 0.0835038H9.09195C9.40285 0.121023 9.67374 0.313621 9.81293 0.594597" fill="white"/>
</svg>
