<svg width="24" height="24" viewBox="0 0 24 24" fill="none" xmlns="http://www.w3.org/2000/svg">
<path d="M9.34933 14.8577C5.38553 14.8577 2 15.47 2 17.9173C2 20.3665 5.364 20.9999 9.34933 20.9999C13.3131 20.9999 16.6987 20.3876 16.6987 17.9403C16.6987 15.4911 13.3347 14.8577 9.34933 14.8577Z" fill="#212121"/>
<path opacity="0.4" d="M9.34935 12.5248C12.049 12.5248 14.2124 10.4062 14.2124 7.76241C14.2124 5.11865 12.049 3 9.34935 3C6.65072 3 4.48633 5.11865 4.48633 7.76241C4.48633 10.4062 6.65072 12.5248 9.34935 12.5248Z" fill="#212121"/>
<path opacity="0.4" d="M16.1735 7.84873C16.1735 9.19505 15.7606 10.4513 15.0365 11.4948C14.9612 11.6021 15.0277 11.7468 15.1588 11.7698C15.3408 11.7995 15.5277 11.8177 15.7185 11.8216C17.6168 11.8704 19.3203 10.6736 19.791 8.87116C20.4886 6.19674 18.4416 3.79541 15.834 3.79541C15.5512 3.79541 15.2802 3.82416 15.016 3.87686C14.9798 3.88453 14.9406 3.90177 14.9211 3.93244C14.8956 3.97172 14.9142 4.02251 14.9397 4.05605C15.7234 5.13214 16.1735 6.44205 16.1735 7.84873Z" fill="#212121"/>
<path d="M21.7792 15.1693C21.4318 14.4439 20.5933 13.9465 19.3174 13.7022C18.7156 13.5585 17.0854 13.3544 15.5698 13.3831C15.5473 13.386 15.5346 13.4013 15.5326 13.4109C15.5297 13.4262 15.5365 13.4492 15.5659 13.4655C16.2665 13.8047 18.9739 15.2804 18.6334 18.3927C18.6187 18.5288 18.7293 18.6438 18.8673 18.6246C19.5336 18.5317 21.2479 18.1704 21.7792 17.0474C22.0737 16.4533 22.0737 15.7634 21.7792 15.1693Z" fill="#212121"/>
</svg>
