<svg width="24" height="24" viewBox="0 0 24 24" fill="none" xmlns="http://www.w3.org/2000/svg">
<path opacity="0.4" d="M20.289 12.6593L11.811 12.6593C11.4188 12.6593 11.1005 12.341 11.1005 11.9488C11.1005 11.5566 11.4188 11.2383 11.811 11.2383L20.289 11.2383C20.6812 11.2383 20.9995 11.5566 20.9995 11.9488C20.9995 12.341 20.6812 12.6593 20.289 12.6593Z" fill="#212121"/>
<mask id="mask0_430_9523" style="mask-type:alpha" maskUnits="userSpaceOnUse" x="3" y="6" width="10" height="12">
<path fill-rule="evenodd" clip-rule="evenodd" d="M12.5212 6.50024L12.5212 17.3966H3.58178L3.58178 6.50024L12.5212 6.50024Z" fill="white"/>
</mask>
<g mask="url(#mask0_430_9523)">
<path d="M11.8107 17.3969C11.6781 17.3969 11.5473 17.36 11.4318 17.288L3.91345 12.5502C3.70692 12.4195 3.58092 12.193 3.58092 11.9486C3.58092 11.7042 3.70692 11.4778 3.91345 11.347L11.4318 6.60924C11.6506 6.47187 11.9272 6.46335 12.1537 6.58935C12.381 6.7144 12.5212 6.95219 12.5212 7.21082L12.5212 16.6864C12.5212 16.945 12.381 17.1828 12.1537 17.3079C12.0466 17.3676 11.9282 17.3969 11.8107 17.3969Z" fill="#212121"/>
</g>
</svg>
