<svg width="24" height="24" viewBox="0 0 24 24" fill="none" xmlns="http://www.w3.org/2000/svg">
<path opacity="0.4" d="M22.0002 12C22.0002 17.515 17.5142 22 12.0002 22C6.48624 22 2.00024 17.515 2.00024 12C2.00024 6.486 6.48624 2 12.0002 2C17.5142 2 22.0002 6.486 22.0002 12Z" fill="#212121"/>
<path d="M16.2208 10.5575C16.2208 10.7485 16.1478 10.9405 16.0018 11.0865L12.5318 14.5735C12.3908 14.7145 12.1998 14.7935 11.9998 14.7935C11.8008 14.7935 11.6098 14.7145 11.4688 14.5735L7.99683 11.0865C7.70483 10.7935 7.70483 10.3195 7.99883 10.0265C8.29283 9.73448 8.76783 9.73548 9.05983 10.0285L11.9998 12.9815L14.9398 10.0285C15.2318 9.73548 15.7058 9.73448 15.9998 10.0265C16.1478 10.1725 16.2208 10.3655 16.2208 10.5575Z" fill="#212121"/>
</svg>
