<svg width="24" height="24" viewBox="0 0 24 24" fill="none" xmlns="http://www.w3.org/2000/svg">
<path opacity="0.4" d="M11.3407 20.289L11.3407 11.811C11.3407 11.4188 11.659 11.1005 12.0512 11.1005C12.4434 11.1005 12.7617 11.4188 12.7617 11.811L12.7617 20.289C12.7617 20.6812 12.4434 20.9995 12.0512 20.9995C11.659 20.9995 11.3407 20.6812 11.3407 20.289Z" fill="#212121"/>
<mask id="mask0_430_9513" style="mask-type:alpha" maskUnits="userSpaceOnUse" x="6" y="3" width="12" height="10">
<path fill-rule="evenodd" clip-rule="evenodd" d="M17.4998 12.5212L6.60336 12.5212L6.60336 3.58178L17.4998 3.58178V12.5212Z" fill="white"/>
</mask>
<g mask="url(#mask0_430_9513)">
<path d="M6.60307 11.8107C6.60307 11.6781 6.64002 11.5473 6.71202 11.4318L11.4498 3.91345C11.5805 3.70692 11.807 3.58092 12.0514 3.58092C12.2958 3.58092 12.5222 3.70692 12.653 3.91345L17.3908 11.4318C17.5281 11.6506 17.5367 11.9272 17.4107 12.1537C17.2856 12.381 17.0478 12.5212 16.7892 12.5212L7.3136 12.5212C7.05497 12.5212 6.81718 12.381 6.69213 12.1537C6.63244 12.0466 6.60307 11.9282 6.60307 11.8107Z" fill="#212121"/>
</g>
</svg>
