<svg width="24" height="24" viewBox="0 0 24 24" fill="none" xmlns="http://www.w3.org/2000/svg">
<path opacity="0.4" d="M12.6593 3.71101V12.189C12.6593 12.5812 12.341 12.8995 11.9488 12.8995C11.5566 12.8995 11.2383 12.5812 11.2383 12.189V3.71101C11.2383 3.3188 11.5566 3.00049 11.9488 3.00049C12.341 3.00049 12.6593 3.3188 12.6593 3.71101Z" fill="#212121"/>
<mask id="mask0_430_9533" style="mask-type:alpha" maskUnits="userSpaceOnUse" x="6" y="11" width="12" height="10">
<path fill-rule="evenodd" clip-rule="evenodd" d="M6.50024 11.4788H17.3966V20.4182H6.50024V11.4788Z" fill="white"/>
</mask>
<g mask="url(#mask0_430_9533)">
<path d="M17.3969 12.1893C17.3969 12.3219 17.36 12.4527 17.288 12.5682L12.5502 20.0865C12.4195 20.2931 12.193 20.4191 11.9486 20.4191C11.7042 20.4191 11.4778 20.2931 11.347 20.0865L6.60924 12.5682C6.47187 12.3494 6.46335 12.0728 6.58935 11.8463C6.7144 11.619 6.95219 11.4788 7.21082 11.4788H16.6864C16.945 11.4788 17.1828 11.619 17.3079 11.8463C17.3676 11.9534 17.3969 12.0718 17.3969 12.1893Z" fill="#212121"/>
</g>
</svg>
