<svg width="24" height="24" viewBox="0 0 24 24" fill="none" xmlns="http://www.w3.org/2000/svg">
<path opacity="0.4" d="M2 7.916V16.084C2 19.623 4.276 22 7.665 22H16.335C19.724 22 22 19.623 22 16.084V7.916C22 4.378 19.723 2 16.334 2H7.665C4.276 2 2 4.378 2 7.916Z" fill="#212121"/>
<path d="M7.72082 12.8555L11.4688 16.6205C11.7508 16.9035 12.2498 16.9035 12.5328 16.6205L16.2808 12.8555C16.5728 12.5615 16.5718 12.0865 16.2778 11.7945C15.9838 11.5025 15.5098 11.5025 15.2168 11.7965L12.7498 14.2735V7.91846C12.7498 7.50346 12.4138 7.16846 11.9998 7.16846C11.5858 7.16846 11.2498 7.50346 11.2498 7.91846V14.2735L8.78382 11.7965C8.63682 11.6495 8.44482 11.5765 8.25182 11.5765C8.06082 11.5765 7.86882 11.6495 7.72282 11.7945C7.42982 12.0865 7.42882 12.5615 7.72082 12.8555Z" fill="#212121"/>
</svg>
