<svg width="24" height="24" viewBox="0 0 24 24" fill="none" xmlns="http://www.w3.org/2000/svg">
<path opacity="0.4" d="M1.99976 12C1.99976 6.485 6.48576 2 11.9998 2C17.5138 2 21.9998 6.485 21.9998 12C21.9998 17.514 17.5138 22 11.9998 22C6.48576 22 1.99976 17.514 1.99976 12Z" fill="#212121"/>
<path d="M7.77917 13.4425C7.77917 13.2515 7.85217 13.0595 7.99817 12.9135L11.4682 9.42652C11.6092 9.28552 11.8002 9.20652 12.0002 9.20652C12.1992 9.20652 12.3902 9.28552 12.5312 9.42652L16.0032 12.9135C16.2952 13.2065 16.2952 13.6805 16.0012 13.9735C15.7072 14.2655 15.2322 14.2645 14.9402 13.9715L12.0002 11.0185L9.06017 13.9715C8.76817 14.2645 8.29417 14.2655 8.00017 13.9735C7.85217 13.8275 7.77917 13.6345 7.77917 13.4425Z" fill="#212121"/>
</svg>
