<svg width="24" height="24" viewBox="0 0 24 24" fill="none" xmlns="http://www.w3.org/2000/svg">
<path fill-rule="evenodd" clip-rule="evenodd" d="M6.18518 14.2054C-0.246309 6.91826 2.96943 4.73963 3.25398 4.38547C6.32269 1.27315 6.79871 2.68979 9.20946 5.13672C11.2404 7.20803 8.60756 8.19539 9.68653 10.6531L6.18518 14.2054Z" fill="#212121"/>
<path fill-rule="evenodd" clip-rule="evenodd" d="M12.0902 13.3826C15.3704 16.0763 16.2956 12.2235 18.619 14.5846C21.0161 17.0315 22.3944 17.5252 19.355 20.6268C18.9975 20.938 16.6951 24.4689 8.79956 16.7417L12.0902 13.3826Z" fill="#212121"/>
<path opacity="0.4" d="M21.3749 3.85937V3.86954L11.9586 13.5151L3.44441 22.246C3.27591 22.4086 3.06777 22.5 2.84971 22.5C2.63165 22.5 2.4235 22.4086 2.24509 22.246C1.96756 21.9512 1.92791 21.5141 2.11623 21.1889L2.14597 21.1482C2.16579 21.1167 2.18562 21.0873 2.21535 21.0568L20.1755 2.62954C20.3242 2.46691 20.5423 2.36426 20.7702 2.36426C20.9982 2.36426 21.2163 2.46691 21.3749 2.62954C21.7019 2.97511 21.7019 3.5138 21.3749 3.85937Z" fill="#212121"/>
</svg>
