<svg width="24" height="24" viewBox="0 0 24 24" fill="none" xmlns="http://www.w3.org/2000/svg">
<path opacity="0.4" d="M22 12C22 17.523 17.523 22 12 22C6.477 22 2 17.523 2 12C2 6.478 6.477 2 12 2C17.523 2 22 6.478 22 12Z" fill="#212121"/>
<path d="M15.86 8.70505L14.24 13.8251C14.18 14.0351 14.01 14.2051 13.8 14.2661L8.69996 15.8651C8.35996 15.9761 8.02996 15.6451 8.13996 15.3051L9.73996 10.1751C9.79996 9.96505 9.96996 9.80505 10.18 9.73505L15.3 8.13505C15.65 8.02505 15.97 8.35505 15.86 8.70505Z" fill="#212121"/>
</svg>
