<svg width="24" height="24" viewBox="0 0 24 24" fill="none" xmlns="http://www.w3.org/2000/svg">
<path opacity="0.4" d="M10.0833 15.958H3.50777C2.67555 15.958 2 16.6217 2 17.4393C2 18.2559 2.67555 18.9207 3.50777 18.9207H10.0833C10.9155 18.9207 11.5911 18.2559 11.5911 17.4393C11.5911 16.6217 10.9155 15.958 10.0833 15.958Z" fill="#212121"/>
<path opacity="0.4" d="M22.0001 6.37867C22.0001 5.56214 21.3246 4.89844 20.4934 4.89844H13.9179C13.0857 4.89844 12.4102 5.56214 12.4102 6.37867C12.4102 7.1963 13.0857 7.86 13.9179 7.86H20.4934C21.3246 7.86 22.0001 7.1963 22.0001 6.37867Z" fill="#212121"/>
<path d="M8.87774 6.37856C8.87774 8.24523 7.33886 9.75821 5.43887 9.75821C3.53999 9.75821 2 8.24523 2 6.37856C2 4.51298 3.53999 3 5.43887 3C7.33886 3 8.87774 4.51298 8.87774 6.37856Z" fill="#212121"/>
<path d="M22.0001 17.3992C22.0001 19.2648 20.4612 20.7777 18.5612 20.7777C16.6623 20.7777 15.1223 19.2648 15.1223 17.3992C15.1223 15.5325 16.6623 14.0195 18.5612 14.0195C20.4612 14.0195 22.0001 15.5325 22.0001 17.3992Z" fill="#212121"/>
</svg>
