<svg width="24" height="24" viewBox="0 0 24 24" fill="none" xmlns="http://www.w3.org/2000/svg">
<path opacity="0.4" d="M12.086 22C11.9622 22 11.8393 21.9716 11.7276 21.9137L8.12627 20.0496C7.10336 19.5201 6.30397 18.9259 5.68076 18.2336C4.31353 16.7195 3.55441 14.776 3.54132 12.7599L3.50004 6.12426C3.495 5.35842 3.98833 4.67103 4.72732 4.41215L11.34 2.10679C11.7336 1.96656 12.1716 1.9646 12.5703 2.09992L19.2081 4.32684C19.9511 4.57493 20.4535 5.25742 20.4575 6.02228L20.4998 12.6628C20.5129 14.676 19.7799 16.6274 18.4349 18.1581C17.8167 18.8602 17.0253 19.4632 16.0135 20.0025L12.4444 21.9088C12.3337 21.9686 12.2098 21.999 12.086 22Z" fill="#212121"/>
<path d="M13.0676 11.7249L14.4258 10.4021C14.7208 10.1148 14.7208 9.65001 14.4258 9.3627C14.1308 9.07539 13.6526 9.07539 13.3576 9.3627L11.9994 10.6845L10.6422 9.3627C10.3472 9.07539 9.86902 9.07539 9.57403 9.3627C9.27904 9.65001 9.27904 10.1148 9.57403 10.4021L10.9322 11.7249L9.57403 13.0478C9.27904 13.3351 9.27904 13.7999 9.57403 14.0872C9.72203 14.2313 9.91533 14.3029 10.1086 14.3029C10.3009 14.3029 10.4942 14.2313 10.6422 14.0872L11.9994 12.7653L13.3576 14.0872C13.5056 14.2313 13.6979 14.3029 13.8912 14.3029C14.0845 14.3029 14.2778 14.2313 14.4258 14.0872C14.7208 13.7999 14.7208 13.3351 14.4258 13.0478L13.0676 11.7249Z" fill="#212121"/>
</svg>
