<svg width="24" height="24" viewBox="0 0 24 24" fill="none" xmlns="http://www.w3.org/2000/svg">
<path opacity="0.4" fill-rule="evenodd" clip-rule="evenodd" d="M17.7366 6.04606C19.4439 7.36388 20.8976 9.29455 21.9415 11.7091C22.0195 11.8924 22.0195 12.1067 21.9415 12.2812C19.8537 17.1103 16.1366 20 12 20H11.9902C7.86341 20 4.14634 17.1103 2.05854 12.2812C1.98049 12.1067 1.98049 11.8924 2.05854 11.7091C4.14634 6.87903 7.86341 4 11.9902 4H12C14.0683 4 16.0293 4.71758 17.7366 6.04606ZM8.09756 12C8.09756 14.1333 9.8439 15.8691 12 15.8691C14.1463 15.8691 15.8927 14.1333 15.8927 12C15.8927 9.85697 14.1463 8.12121 12 8.12121C9.8439 8.12121 8.09756 9.85697 8.09756 12Z" fill="#212121"/>
<path d="M14.431 11.997C14.431 13.3255 13.3384 14.4115 12.0018 14.4115C10.6554 14.4115 9.56274 13.3255 9.56274 11.997C9.56274 11.8321 9.58226 11.678 9.61152 11.5228H9.66031C10.7432 11.5228 11.6213 10.6695 11.6603 9.60184C11.7676 9.58342 11.8847 9.57275 12.0018 9.57275C13.3384 9.57275 14.431 10.6588 14.431 11.997Z" fill="#212121"/>
</svg>
