<svg width="24" height="24" viewBox="0 0 24 24" fill="none" xmlns="http://www.w3.org/2000/svg">
<path opacity="0.4" d="M16.3402 1.99976H7.67024C4.28024 1.99976 2.00024 4.37976 2.00024 7.91976V16.0898C2.00024 19.6198 4.28024 21.9998 7.67024 21.9998H16.3402C19.7302 21.9998 22.0002 19.6198 22.0002 16.0898V7.91976C22.0002 4.37976 19.7302 1.99976 16.3402 1.99976Z" fill="#212121"/>
<path d="M10.8134 15.248C10.5894 15.248 10.3654 15.163 10.1944 14.992L7.82144 12.619C7.47944 12.277 7.47944 11.723 7.82144 11.382C8.16344 11.04 8.71644 11.039 9.05844 11.381L10.8134 13.136L14.9414 9.00796C15.2834 8.66596 15.8364 8.66596 16.1784 9.00796C16.5204 9.34996 16.5204 9.90396 16.1784 10.246L11.4324 14.992C11.2614 15.163 11.0374 15.248 10.8134 15.248Z" fill="#212121"/>
</svg>
