<svg width="24" height="24" viewBox="0 0 24 24" fill="none" xmlns="http://www.w3.org/2000/svg">
<path opacity="0.4" d="M21.9998 12C21.9998 17.524 17.5228 22 11.9998 22C6.47676 22 1.99976 17.524 1.99976 12C1.99976 6.478 6.47676 2 11.9998 2C17.5228 2 21.9998 6.478 21.9998 12Z" fill="#212121"/>
<path d="M15.5734 15.8145C15.4424 15.8145 15.3104 15.7805 15.1894 15.7095L11.2634 13.3675C11.0374 13.2315 10.8984 12.9865 10.8984 12.7225V7.67554C10.8984 7.26154 11.2344 6.92554 11.6484 6.92554C12.0624 6.92554 12.3984 7.26154 12.3984 7.67554V12.2965L15.9584 14.4195C16.3134 14.6325 16.4304 15.0925 16.2184 15.4485C16.0774 15.6835 15.8284 15.8145 15.5734 15.8145Z" fill="#212121"/>
</svg>
