<svg width="24" height="24" viewBox="0 0 24 24" fill="none" xmlns="http://www.w3.org/2000/svg">
<path fill-rule="evenodd" clip-rule="evenodd" d="M11.9726 20.3683C8.73355 20.3683 5.96655 19.8783 5.96655 17.9163C5.96655 15.9543 8.71555 14.2463 11.9726 14.2463C15.2116 14.2463 17.9786 15.9383 17.9786 17.8993C17.9786 19.8603 15.2296 20.3683 11.9726 20.3683Z" stroke="#212121" stroke-width="1.5" stroke-linecap="round" stroke-linejoin="round"/>
<path fill-rule="evenodd" clip-rule="evenodd" d="M11.9726 11.4488C14.0986 11.4488 15.8226 9.72576 15.8226 7.59976C15.8226 5.47376 14.0986 3.74976 11.9726 3.74976C9.84657 3.74976 8.12257 5.47376 8.12257 7.59976C8.11657 9.71776 9.82657 11.4418 11.9456 11.4488H11.9726Z" stroke="#212121" stroke-width="1.5" stroke-linecap="round" stroke-linejoin="round"/>
<path d="M18.362 10.3915C19.599 10.0605 20.511 8.93254 20.511 7.58954C20.511 6.18854 19.518 5.01854 18.196 4.74854" stroke="#212121" stroke-width="1.5" stroke-linecap="round" stroke-linejoin="round"/>
<path d="M18.9431 13.5444C20.6971 13.5444 22.1951 14.7334 22.1951 15.7954C22.1951 16.4204 21.6781 17.1014 20.8941 17.2854" stroke="#212121" stroke-width="1.5" stroke-linecap="round" stroke-linejoin="round"/>
<path d="M5.58384 10.3915C4.34584 10.0605 3.43384 8.93254 3.43384 7.58954C3.43384 6.18854 4.42784 5.01854 5.74884 4.74854" stroke="#212121" stroke-width="1.5" stroke-linecap="round" stroke-linejoin="round"/>
<path d="M5.00176 13.5444C3.24776 13.5444 1.74976 14.7334 1.74976 15.7954C1.74976 16.4204 2.26676 17.1014 3.05176 17.2854" stroke="#212121" stroke-width="1.5" stroke-linecap="round" stroke-linejoin="round"/>
</svg>
