<svg width="24" height="24" viewBox="0 0 24 24" fill="none" xmlns="http://www.w3.org/2000/svg">
<path d="M5.29333 6.28628C4.89915 6.41355 4.68278 6.83627 4.81005 7.23044C4.93732 7.62462 5.36004 7.84099 5.75421 7.71372L5.29333 6.28628ZM18.5 16.0871L18.0002 15.5279L18 15.528L18.5 16.0871ZM6.87015 16.0871L6.43506 16.698L6.43523 16.6981L6.87015 16.0871ZM5.544 5.743L4.79426 5.72319C4.79392 5.73595 4.79391 5.74872 4.79423 5.76148L5.544 5.743ZM3.61082 2.75823C3.20116 2.69703 2.81944 2.97951 2.75823 3.38918C2.69703 3.79884 2.97951 4.18056 3.38918 4.24177L3.61082 2.75823ZM18.8292 7.83541C19.2392 8.65554 19.4449 10.2402 19.2988 11.8773C19.2274 12.6786 19.0747 13.4505 18.8445 14.1022C18.6108 14.7634 18.3171 15.2446 18.0002 15.5279L18.9998 16.6463C19.5774 16.1301 19.9809 15.3882 20.2588 14.6019C20.54 13.806 20.713 12.9062 20.7929 12.0106C20.9496 10.2538 20.7608 8.34446 20.1708 7.16459L18.8292 7.83541ZM18 15.528C17.7046 15.7922 17.0701 16.0691 16.1164 16.2748C15.1944 16.4736 14.0795 16.5842 12.9311 16.5934C11.7833 16.6025 10.625 16.5102 9.61666 16.3144C8.59189 16.1154 7.79194 15.8226 7.30506 15.4761L6.43523 16.6981C7.17836 17.2271 8.22363 17.5719 9.33071 17.7869C10.4543 18.0051 11.7144 18.1031 12.9431 18.0933C14.1711 18.0835 15.3907 17.9657 16.4326 17.7411C17.4427 17.5232 18.4014 17.1815 19 16.6462L18 15.528ZM7.30523 15.4762C6.33897 14.788 6.01037 13.4323 6.01432 11.5158C6.01623 10.5875 6.09406 9.60604 6.16944 8.61065C6.24369 7.63031 6.31611 6.63071 6.29377 5.72452L4.79423 5.76148C4.81439 6.57979 4.74895 7.50408 4.67373 8.49738C4.59964 9.47564 4.51638 10.5176 4.51432 11.5128C4.51035 13.4434 4.80232 15.5352 6.43506 16.698L7.30523 15.4762ZM6.29374 5.76281C6.32819 4.45908 5.61133 3.67716 4.9352 3.25962C4.60641 3.05658 4.28244 2.93381 4.04481 2.86152C3.92457 2.82495 3.82261 2.80015 3.74797 2.78406C3.71056 2.776 3.67972 2.77006 3.65656 2.76588C3.64498 2.76379 3.63528 2.76214 3.62762 2.76088C3.62379 2.76025 3.62046 2.75972 3.61766 2.75928C3.61626 2.75906 3.61498 2.75886 3.61384 2.75869C3.61327 2.7586 3.61274 2.75852 3.61223 2.75845C3.61198 2.75841 3.61163 2.75835 3.6115 2.75833C3.61116 2.75828 3.61082 2.75823 3.5 3.5C3.38918 4.24177 3.38886 4.24172 3.38854 4.24167C3.38845 4.24166 3.38815 4.24161 3.38796 4.24158C3.38758 4.24153 3.38724 4.24147 3.38692 4.24143C3.38629 4.24133 3.38577 4.24125 3.38538 4.24119C3.38459 4.24106 3.38426 4.24101 3.38439 4.24103C3.38466 4.24107 3.38672 4.24142 3.39047 4.24209C3.39797 4.24344 3.4121 4.24611 3.43187 4.25038C3.4716 4.25894 3.53291 4.27367 3.60829 4.2966C3.76187 4.34332 3.95847 4.41942 4.14705 4.53588C4.50567 4.75734 4.81081 5.09692 4.79426 5.72319L6.29374 5.76281ZM5.75421 7.71372C9.54118 6.491 14.0103 6.20673 15.9836 6.24982L16.0164 4.75018C13.9345 4.70472 9.28736 4.99671 5.29333 6.28628L5.75421 7.71372ZM15.9836 6.24982C16.9149 6.27016 17.4891 6.4447 17.8816 6.68998C18.2686 6.93184 18.557 7.29102 18.8292 7.83541L20.1708 7.16459C19.8262 6.47528 19.3784 5.85659 18.6765 5.41795C17.9801 4.98272 17.1127 4.77412 16.0164 4.75018L15.9836 6.24982Z" fill="#212121"/>
<path d="M13 10.5H15.773" stroke="#212121" stroke-width="1.5" stroke-linecap="round" stroke-linejoin="round"/>
<path fill-rule="evenodd" clip-rule="evenodd" d="M7.26399 20.1274C7.56399 20.1274 7.80799 20.3714 7.80799 20.6714C7.80799 20.9724 7.56399 21.2164 7.26399 21.2164C6.96299 21.2164 6.71899 20.9724 6.71899 20.6714C6.71899 20.3714 6.96299 20.1274 7.26399 20.1274Z" fill="#212121" stroke="#212121" stroke-width="1.5" stroke-linecap="round" stroke-linejoin="round"/>
<path fill-rule="evenodd" clip-rule="evenodd" d="M17.5955 20.1274C17.8965 20.1274 18.1405 20.3714 18.1405 20.6714C18.1405 20.9724 17.8965 21.2164 17.5955 21.2164C17.2955 21.2164 17.0515 20.9724 17.0515 20.6714C17.0515 20.3714 17.2955 20.1274 17.5955 20.1274Z" fill="#212121" stroke="#212121" stroke-width="1.5" stroke-linecap="round" stroke-linejoin="round"/>
</svg>
