<svg width="24" height="24" viewBox="0 0 24 24" fill="none" xmlns="http://www.w3.org/2000/svg">
<path fill-rule="evenodd" clip-rule="evenodd" d="M15.438 12.4983C15.438 10.7614 14.0296 9.35303 12.2927 9.35303C10.5559 9.35303 9.14746 10.7614 9.14746 12.4983C9.14746 14.2351 10.5559 15.6436 12.2927 15.6436C14.0296 15.6436 15.438 14.2351 15.438 12.4983Z" stroke="#212121" stroke-width="1.5" stroke-linecap="round" stroke-linejoin="round"/>
<path fill-rule="evenodd" clip-rule="evenodd" d="M12.2925 20.2002C20.3377 20.2002 21.2956 17.7897 21.2956 12.5665C21.2956 8.90545 20.8114 6.94651 17.7619 6.1044C17.4819 6.01598 17.1714 5.84756 16.9198 5.57072C16.5135 5.12545 16.2167 3.75809 15.2356 3.3444C14.2546 2.93177 10.3146 2.95072 9.34931 3.3444C8.3851 3.73914 8.07141 5.12545 7.6651 5.57072C7.41352 5.84756 7.10404 6.01598 6.82299 6.1044C3.77352 6.94651 3.28931 8.90545 3.28931 12.5665C3.28931 17.7897 4.2472 20.2002 12.2925 20.2002Z" stroke="#212121" stroke-width="1.5" stroke-linecap="round" stroke-linejoin="round"/>
<path d="M17.2045 9H17.2135" stroke="#212121" stroke-width="1.5" stroke-linecap="round" stroke-linejoin="round"/>
</svg>
