<svg width="24" height="24" viewBox="0 0 24 24" fill="none" xmlns="http://www.w3.org/2000/svg">
<path fill-rule="evenodd" clip-rule="evenodd" d="M2.75 12C2.75 18.937 5.063 21.25 12 21.25C18.937 21.25 21.25 18.937 21.25 12C21.25 5.063 18.937 2.75 12 2.75C5.063 2.75 2.75 5.063 2.75 12Z" stroke="#212121" stroke-width="1.5" stroke-linecap="round" stroke-linejoin="round"/>
<path fill-rule="evenodd" clip-rule="evenodd" d="M10.5987 8.78419C10.5987 9.75719 9.81066 10.5452 8.83766 10.5452C7.86566 10.5452 7.07666 9.75719 7.07666 8.78419C7.07666 7.81119 7.86566 7.02319 8.83766 7.02319C9.81066 7.02319 10.5987 7.81119 10.5987 8.78419Z" stroke="#212121" stroke-width="1.5" stroke-linecap="round" stroke-linejoin="round"/>
<path d="M21.1201 14.6664C20.2391 13.7604 18.9931 11.9294 16.7041 11.9294C14.4151 11.9294 14.3651 15.9674 12.0291 15.9674C9.69206 15.9674 8.75106 14.5964 7.22806 15.3124C5.70606 16.0274 4.46606 18.8734 4.46606 18.8734" stroke="#212121" stroke-width="1.5" stroke-linecap="round" stroke-linejoin="round"/>
</svg>
