<svg width="24" height="24" viewBox="0 0 24 24" fill="none" xmlns="http://www.w3.org/2000/svg">
<path fill-rule="evenodd" clip-rule="evenodd" d="M10.6889 11.9999C10.6889 13.0229 9.85986 13.8519 8.83686 13.8519C7.81386 13.8519 6.98486 13.0229 6.98486 11.9999C6.98486 10.9769 7.81386 10.1479 8.83686 10.1479H8.83986C9.86186 10.1489 10.6889 10.9779 10.6889 11.9999Z" stroke="#212121" stroke-width="1.5" stroke-linecap="round" stroke-linejoin="round"/>
<path d="M10.6919 12H17.0099V13.852" stroke="#212121" stroke-width="1.5" stroke-linecap="round" stroke-linejoin="round"/>
<path d="M14.1821 13.852V12" stroke="#212121" stroke-width="1.5" stroke-linecap="round" stroke-linejoin="round"/>
<path fill-rule="evenodd" clip-rule="evenodd" d="M2.75 12C2.75 5.063 5.063 2.75 12 2.75C18.937 2.75 21.25 5.063 21.25 12C21.25 18.937 18.937 21.25 12 21.25C5.063 21.25 2.75 18.937 2.75 12Z" stroke="#212121" stroke-width="1.5" stroke-linecap="round" stroke-linejoin="round"/>
</svg>
