<svg width="24" height="24" viewBox="0 0 24 24" fill="none" xmlns="http://www.w3.org/2000/svg">
<path d="M19.4358 5.77441C21.9294 9.49441 21.9367 14.4035 19.4358 18.1317" stroke="#212121" stroke-width="1.5" stroke-linecap="round" stroke-linejoin="round"/>
<path d="M16.989 8.21729C18.2708 10.54 18.2708 13.3746 16.989 15.6891" stroke="#212121" stroke-width="1.5" stroke-linecap="round" stroke-linejoin="round"/>
<path fill-rule="evenodd" clip-rule="evenodd" d="M2.68237 11.953C2.67964 13.1993 2.68237 14.6611 3.71146 15.5348C4.74146 16.4093 5.55783 16.0484 6.88964 16.4866C8.22237 16.9257 10.0887 19.633 12.1506 18.4102C13.2651 17.6184 13.7906 16.1239 13.7906 11.953C13.7906 7.78204 13.2887 6.30386 12.1506 5.49568C10.0887 4.27386 8.22237 6.98113 6.88964 7.41932C5.55783 7.85841 4.74146 7.4975 3.71146 8.37113C2.68237 9.24477 2.67964 10.7066 2.68237 11.953Z" stroke="#212121" stroke-width="1.5" stroke-linecap="round" stroke-linejoin="round"/>
</svg>
