<svg width="24" height="24" viewBox="0 0 24 24" fill="none" xmlns="http://www.w3.org/2000/svg">
<path d="M18.6558 8.63452C19.9091 10.9056 19.9091 13.6772 18.6558 15.9403" stroke="#212121" stroke-width="1.5" stroke-linecap="round" stroke-linejoin="round"/>
<path fill-rule="evenodd" clip-rule="evenodd" d="M4.66711 12.2873C4.66355 13.506 4.66711 14.9353 5.67333 15.7896C6.67955 16.6447 7.47866 16.2918 8.78088 16.7202C10.084 17.1496 11.9089 19.7967 13.9249 18.6011C15.0147 17.8269 15.5284 16.3656 15.5284 12.2873C15.5284 8.20912 15.0378 6.76379 13.9249 5.97357C11.9089 4.7789 10.084 7.42601 8.78088 7.85445C7.47866 8.28379 6.67955 7.9309 5.67333 8.78512C4.66711 9.63934 4.66355 11.0687 4.66711 12.2873Z" stroke="#212121" stroke-width="1.5" stroke-linecap="round" stroke-linejoin="round"/>
</svg>
