<svg width="24" height="24" viewBox="0 0 24 24" fill="none" xmlns="http://www.w3.org/2000/svg">
<path d="M19 2H9C7.897 2 7 2.897 7 4V10H5C3.897 10 3 10.897 3 12V21C3 21.2652 3.10536 21.5196 3.29289 21.7071C3.48043 21.8946 3.73478 22 4 22H20C20.2652 22 20.5196 21.8946 20.7071 21.7071C20.8946 21.5196 21 21.2652 21 21V4C21 2.897 20.103 2 19 2ZM5 12H11V20H5V12ZM19 20H13V12C13 10.897 12.103 10 11 10H9V4H19V20Z" fill="#212121"/>
<path d="M11 6H13V8H11V6ZM15 6H17V8H15V6ZM15 10.031H17V12H15V10.031ZM15 14H17V16H15V14ZM7 14.001H9V16.001H7V14.001Z" fill="#212121"/>
</svg>
