<svg width="24" height="24" viewBox="0 0 24 24" fill="none" xmlns="http://www.w3.org/2000/svg">
<path d="M13.409 2.27477C12.5054 1.90841 11.4946 1.90841 10.591 2.27477L8.401 3.16277L17.993 6.89277L21.367 5.58977C21.2287 5.47499 21.0736 5.38223 20.907 5.31477L13.409 2.27477ZM22 6.95277L12.75 10.5268V12.8268C13.3573 12.1745 14.0925 11.6545 14.9098 11.2992C15.7271 10.9439 16.6088 10.761 17.5 10.7618C19.247 10.7618 20.832 11.4508 22 12.5718V6.95177V6.95277ZM11.25 10.5268V15.4718C11.0837 16.0542 10.9995 16.657 11 17.2628C11 17.8838 11.087 18.4848 11.25 19.0528V21.4498C11.0247 21.4038 10.8041 21.3372 10.591 21.2508L3.093 18.2108C2.77003 18.0799 2.49347 17.8557 2.29875 17.5667C2.10402 17.2778 2 16.9372 2 16.5888V6.95377L11.25 10.5278V10.5268ZM2.633 5.58977L12 9.20877L15.917 7.69477L6.374 3.98477L3.093 5.31477C2.923 5.38377 2.769 5.47677 2.633 5.58977ZM17.5 22.7618C18.9587 22.7618 20.3576 22.1823 21.3891 21.1509C22.4205 20.1194 23 18.7205 23 17.2618C23 15.8031 22.4205 14.4041 21.3891 13.3727C20.3576 12.3412 18.9587 11.7618 17.5 11.7618C16.0413 11.7618 14.6424 12.3412 13.6109 13.3727C12.5795 14.4041 12 15.8031 12 17.2618C12 18.7205 12.5795 20.1194 13.6109 21.1509C14.6424 22.1823 16.0413 22.7618 17.5 22.7618ZM20.146 14.9078C20.2398 14.8139 20.367 14.7611 20.4996 14.761C20.6323 14.7609 20.7596 14.8135 20.8535 14.9073C20.9474 15.001 21.0002 15.1282 21.0003 15.2609C21.0004 15.3936 20.9478 15.5209 20.854 15.6148L16.854 19.6148C16.8076 19.6613 16.7524 19.6983 16.6916 19.7235C16.6309 19.7487 16.5658 19.7617 16.5 19.7617C16.4342 19.7617 16.3691 19.7487 16.3084 19.7235C16.2476 19.6983 16.1924 19.6613 16.146 19.6148L14.146 17.6148C14.0996 17.5683 14.0628 17.5131 14.0377 17.4524C14.0126 17.3917 13.9997 17.3266 13.9997 17.2609C13.9998 17.1952 14.0128 17.1302 14.0379 17.0695C14.0631 17.0088 14.1 16.9537 14.1465 16.9073C14.193 16.8608 14.2482 16.824 14.3089 16.7989C14.3696 16.7738 14.4347 16.7609 14.5004 16.761C14.5661 16.761 14.6311 16.774 14.6918 16.7992C14.7525 16.8244 14.8076 16.8613 14.854 16.9078L16.5 18.5548L20.146 14.9078Z" fill="#212121"/>
</svg>
