<svg width="24" height="24" viewBox="0 0 24 24" fill="none" xmlns="http://www.w3.org/2000/svg">
<path d="M17.5129 6.4059C17.7894 6.14268 18.1573 5.99715 18.5391 6.00004C18.9208 6.00293 19.2865 6.154 19.559 6.42138C19.8315 6.68876 19.9894 7.05153 19.9995 7.43315C20.0096 7.81477 19.871 8.18538 19.6131 8.46678L11.7817 18.2609C11.647 18.4059 11.4845 18.5223 11.3038 18.6031C11.1232 18.6839 10.9281 18.7274 10.7302 18.7311C10.5323 18.7348 10.3357 18.6985 10.1522 18.6244C9.96861 18.5504 9.80188 18.4401 9.66194 18.3001L4.46852 13.1067C4.3239 12.9719 4.20789 12.8094 4.12744 12.6289C4.04698 12.4483 4.00372 12.2534 4.00023 12.0557C3.99674 11.8581 4.0331 11.6617 4.10714 11.4784C4.18117 11.2951 4.29137 11.1286 4.43116 10.9888C4.57094 10.8491 4.73745 10.7389 4.92074 10.6648C5.10404 10.5908 5.30037 10.5544 5.49803 10.5579C5.69568 10.5614 5.89061 10.6047 6.07118 10.6851C6.25175 10.7656 6.41427 10.8816 6.54903 11.0262L10.659 15.1342L17.4756 6.44908C17.4879 6.43397 17.501 6.41955 17.5149 6.4059H17.5129Z" fill="#212121"/>
</svg>
