<svg width="24" height="24" viewBox="0 0 24 24" fill="none" xmlns="http://www.w3.org/2000/svg">
<path d="M2.00207 9.62999C1.97907 10.041 2.20907 10.424 2.58307 10.596L10.0871 14.038L13.5291 21.541C13.6931 21.897 14.0491 22.124 14.4381 22.124L14.4951 22.122C14.6958 22.1107 14.8884 22.0393 15.0479 21.9169C15.2074 21.7945 15.3263 21.6269 15.3891 21.436L20.9841 4.40399C21.1011 4.04599 21.0071 3.65099 20.7411 3.38399C20.4751 3.11699 20.0811 3.02599 19.7211 3.14099L2.68807 8.73599C2.49711 8.79879 2.32952 8.91768 2.20715 9.07716C2.08478 9.23663 2.01331 9.42929 2.00207 9.62999ZM18.4661 5.65899L14.2841 18.389L11.7501 12.867C11.6504 12.6493 11.4758 12.4747 11.2581 12.375L5.73407 9.84099L18.4661 5.65899Z" fill="#212121"/>
</svg>
