<svg width="24" height="24" viewBox="0 0 24 24" fill="none" xmlns="http://www.w3.org/2000/svg">
<path d="M8.4649 11.2929C9.5979 10.1599 11.5739 10.1599 12.7069 11.2929L13.4139 11.9999L14.8279 10.5859L14.1209 9.87894C13.1779 8.93494 11.9219 8.41394 10.5859 8.41394C9.2499 8.41394 7.9939 8.93494 7.0509 9.87894L4.9289 11.9999C3.9932 12.9387 3.46777 14.21 3.46777 15.5354C3.46777 16.8609 3.9932 18.1322 4.9289 19.0709C5.39277 19.5355 5.94387 19.9038 6.55052 20.1547C7.15717 20.4056 7.80742 20.5341 8.4639 20.5329C9.12056 20.5343 9.77102 20.4058 10.3779 20.1549C10.9847 19.904 11.5359 19.5356 11.9999 19.0709L12.7069 18.3639L11.2929 16.9499L10.5859 17.6569C10.0224 18.2179 9.25957 18.5329 8.4644 18.5329C7.66923 18.5329 6.90643 18.2179 6.3429 17.6569C5.7814 17.0937 5.46611 16.3308 5.46611 15.5354C5.46611 14.7401 5.7814 13.9772 6.3429 13.4139L8.4649 11.2929Z" fill="#212121"/>
<path d="M11.9999 4.92899L11.2929 5.63599L12.7069 7.04999L13.4139 6.34299C13.9774 5.78198 14.7402 5.46702 15.5354 5.46702C16.3305 5.46702 17.0933 5.78198 17.6569 6.34299C18.2184 6.90626 18.5337 7.66916 18.5337 8.46449C18.5337 9.25983 18.2184 10.0227 17.6569 10.586L15.5349 12.707C14.4019 13.84 12.4259 13.84 11.2929 12.707L10.5859 12L9.17188 13.414L9.87887 14.121C10.8219 15.065 12.0779 15.586 13.4139 15.586C14.7499 15.586 16.0059 15.065 16.9489 14.121L19.0709 12C20.0066 11.0613 20.532 9.78991 20.532 8.46449C20.532 7.13908 20.0066 5.86771 19.0709 4.92899C18.1324 3.9928 16.861 3.46704 15.5354 3.46704C14.2098 3.46704 12.9383 3.9928 11.9999 4.92899Z" fill="#212121"/>
</svg>
