<svg width="24" height="24" viewBox="0 0 24 24" fill="none" xmlns="http://www.w3.org/2000/svg">
<path d="M11.4201 21.815C11.5897 21.935 11.7923 21.9995 12.0001 21.9995C12.2079 21.9995 12.4105 21.935 12.5801 21.815C12.8841 21.598 20.0291 16.44 20.0001 10C20.0001 5.589 16.4111 2 12.0001 2C7.58909 2 4.00009 5.589 4.00009 9.996C3.97109 16.44 11.1161 21.598 11.4201 21.815ZM12.0001 4C15.3091 4 18.0001 6.691 18.0001 10.004C18.0211 14.442 13.6121 18.427 12.0001 19.735C10.3891 18.427 5.97909 14.442 6.00009 10C6.00009 6.691 8.69109 4 12.0001 4Z" fill="#212121"/>
<path d="M11 14H13V11H16V9H13V6H11V9H8V11H11V14Z" fill="#212121"/>
</svg>
