<svg width="24" height="24" viewBox="0 0 24 24" fill="none" xmlns="http://www.w3.org/2000/svg">
<path fill-rule="evenodd" clip-rule="evenodd" d="M22.1714 15.2571H22.7286C23.035 15.2571 23.2857 15.5079 23.2857 15.8143V16.9286C23.2857 17.235 23.035 17.4857 22.7286 17.4857H21.0571C21.0571 19.3312 19.5598 20.8286 17.7143 20.8286C15.8687 20.8286 14.3714 19.3312 14.3714 17.4857H9.91429C9.91429 19.3312 8.41696 20.8286 6.57143 20.8286C4.72589 20.8286 3.22857 19.3312 3.22857 17.4857V13.0286H8.52143C8.67464 13.0286 8.8 12.9032 8.8 12.75V12.1929C8.8 12.0396 8.67464 11.9143 8.52143 11.9143H1.27857C1.12536 11.9143 1 11.7889 1 11.6357V11.0786C1 10.9254 1.12536 10.8 1.27857 10.8H9.63571C9.78893 10.8 9.91429 10.6746 9.91429 10.5214V9.96428C9.91429 9.81107 9.78893 9.68571 9.63571 9.68571H2.39286C2.23964 9.68571 2.11429 9.56036 2.11429 9.40714V8.85C2.11429 8.69678 2.23964 8.57143 2.39286 8.57143H10.75C10.9032 8.57143 11.0286 8.44607 11.0286 8.29286V7.73571C11.0286 7.5825 10.9032 7.45714 10.75 7.45714H1.27857C1.12536 7.45714 1 7.33179 1 7.17857V6.62143C1 6.46821 1.12536 6.34286 1.27857 6.34286H3.22857V4.67143C3.22857 3.74866 3.97723 3 4.9 3H13.8143C14.7371 3 15.4857 3.74866 15.4857 4.67143V6.34286H17.0213C17.4636 6.34286 17.8884 6.52045 18.2018 6.83384L21.6804 10.3125C21.9938 10.6259 22.1714 11.0507 22.1714 11.4929V15.2571ZM4.89956 17.4857C4.89956 18.4085 5.64823 19.1571 6.57099 19.1571C7.49376 19.1571 8.24242 18.4085 8.24242 17.4857C8.24242 16.5629 7.49376 15.8143 6.57099 15.8143C5.64823 15.8143 4.89956 16.5629 4.89956 17.4857ZM16.0424 17.4857C16.0424 18.4085 16.7911 19.1571 17.7139 19.1571C18.6366 19.1571 19.3853 18.4085 19.3853 17.4857C19.3853 16.5629 18.6366 15.8143 17.7139 15.8143C16.7911 15.8143 16.0424 16.5629 16.0424 17.4857ZM15.4853 11.9143H20.4996V11.4929L17.0209 8.01429H15.4853V11.9143Z" fill="#212121"/>
</svg>
