<svg width="24" height="24" viewBox="0 0 24 24" fill="none" xmlns="http://www.w3.org/2000/svg">
<path d="M21.447 6.10498L15.447 3.10498C15.3081 3.03546 15.1549 2.99927 14.9995 2.99927C14.8441 2.99927 14.6909 3.03546 14.552 3.10498L9 5.88198L3.447 3.10498C3.2945 3.02878 3.12506 2.99283 2.95476 3.00054C2.78446 3.00825 2.61895 3.05938 2.47397 3.14905C2.32899 3.23873 2.20933 3.36398 2.12638 3.51291C2.04342 3.66184 1.99992 3.82951 2 3.99998V17C2 17.379 2.214 17.725 2.553 17.895L8.553 20.895C8.69193 20.9645 8.84515 21.0007 9.0005 21.0007C9.15585 21.0007 9.30907 20.9645 9.448 20.895L15 18.118L20.553 20.894C20.7051 20.9709 20.8744 21.0074 21.0446 20.9998C21.2149 20.9923 21.3803 20.941 21.525 20.851C21.82 20.668 22 20.347 22 20V6.99998C22 6.62098 21.786 6.27498 21.447 6.10498ZM10 7.61798L14 5.61798V16.382L10 18.382V7.61798ZM4 5.61798L8 7.61798V18.382L4 16.382V5.61798ZM20 18.382L16 16.382V5.61798L20 7.61798V18.382Z" fill="#212121"/>
</svg>
