<svg width="24" height="24" viewBox="0 0 24 24" fill="none" xmlns="http://www.w3.org/2000/svg">
<path d="M12 4V8H6.319L4.175 13H22V22C22 22.2652 21.8946 22.5196 21.7071 22.7071C21.5196 22.8946 21.2652 23 21 23H20C19.7348 23 19.4804 22.8946 19.2929 22.7071C19.1054 22.5196 19 22.2652 19 22V21H5V22C5 22.2652 4.89464 22.5196 4.70711 22.7071C4.51957 22.8946 4.26522 23 4 23H3C2.73478 23 2.48043 22.8946 2.29289 22.7071C2.10536 22.5196 2 22.2652 2 22V13L4.48 7.212C4.63432 6.852 4.89096 6.54524 5.21805 6.32978C5.54515 6.11432 5.92832 5.99965 6.32 6H9V4H12ZM6.5 15C6.10218 15 5.72064 15.158 5.43934 15.4393C5.15804 15.7206 5 16.1022 5 16.5C5 16.8978 5.15804 17.2794 5.43934 17.5607C5.72064 17.842 6.10218 18 6.5 18C6.89782 18 7.27936 17.842 7.56066 17.5607C7.84196 17.2794 8 16.8978 8 16.5C8 16.1022 7.84196 15.7206 7.56066 15.4393C7.27936 15.158 6.89782 15 6.5 15ZM17.5 15C17.1022 15 16.7206 15.158 16.4393 15.4393C16.158 15.7206 16 16.1022 16 16.5C16 16.8978 16.158 17.2794 16.4393 17.5607C16.7206 17.842 17.1022 18 17.5 18C17.8978 18 18.2794 17.842 18.5607 17.5607C18.842 17.2794 19 16.8978 19 16.5C19 16.1022 18.842 15.7206 18.5607 15.4393C18.2794 15.158 17.8978 15 17.5 15ZM18.5 2C19.6935 2 20.8381 2.47411 21.682 3.31802C22.5259 4.16193 23 5.30653 23 6.5C23 7.69347 22.5259 8.83807 21.682 9.68198C20.8381 10.5259 19.6935 11 18.5 11C17.3065 11 16.1619 10.5259 15.318 9.68198C14.4741 8.83807 14 7.69347 14 6.5C14 5.30653 14.4741 4.16193 15.318 3.31802C16.1619 2.47411 17.3065 2 18.5 2ZM18.5 7.167C18.009 7.167 17.56 7.344 17.211 7.637L17.086 7.752L18.5 9.167L19.913 7.751C19.7275 7.56548 19.5072 7.4184 19.2647 7.31819C19.0222 7.21798 18.7624 7.1666 18.5 7.167ZM18.5 4.5C17.344 4.49826 16.2289 4.92714 15.372 5.703L15.199 5.868L16.143 6.81C16.4521 6.49989 16.8195 6.25394 17.224 6.08627C17.6285 5.9186 18.0621 5.83253 18.5 5.833C19.3104 5.83177 20.0932 6.12699 20.701 6.663L20.857 6.81L21.8 5.867C21.3671 5.43296 20.8528 5.08875 20.2864 4.85415C19.7201 4.61956 19.113 4.4992 18.5 4.5Z" fill="#212121"/>
</svg>
