<svg width="24" height="24" viewBox="0 0 24 24" fill="none" xmlns="http://www.w3.org/2000/svg">
<path d="M13.409 2.27477C12.5054 1.90841 11.4946 1.90841 10.591 2.27477L8.401 3.16277L17.993 6.89277L21.367 5.58977C21.2287 5.47499 21.0736 5.38223 20.907 5.31477L13.409 2.27477ZM22 6.95277L12.75 10.5268V21.4498C12.974 21.4048 13.194 21.3378 13.409 21.2508L20.907 18.2108C21.23 18.0799 21.5065 17.8557 21.7013 17.5667C21.896 17.2778 22 16.9372 22 16.5888V6.95377V6.95277ZM11.25 21.4498V10.5268L2 6.95277V16.5898C2.0002 16.9381 2.10431 17.2784 2.29903 17.5671C2.49374 17.8559 2.77019 18.08 3.093 18.2108L10.591 21.2508C10.806 21.3378 11.026 21.4038 11.25 21.4508V21.4498ZM2.633 5.58977L12 9.20877L15.917 7.69477L6.374 3.98477L3.093 5.31477C2.923 5.38377 2.769 5.47677 2.633 5.58977Z" fill="#212121"/>
</svg>
