<svg width="24" height="24" viewBox="0 0 24 24" fill="none" xmlns="http://www.w3.org/2000/svg">
<path d="M7 14.001H9V16.001H7V14.001Z" fill="#212121"/>
<path d="M19 2H11C10.4696 2 9.96086 2.21071 9.58579 2.58579C9.21071 2.96086 9 3.46957 9 4V10H5C3.897 10 3 10.897 3 12V21C3 21.2652 3.10536 21.5196 3.29289 21.7071C3.48043 21.8946 3.73478 22 4 22H20C20.2652 22 20.5196 21.8946 20.7071 21.7071C20.8946 21.5196 21 21.2652 21 21V4C21 3.46957 20.7893 2.96086 20.4142 2.58579C20.0391 2.21071 19.5304 2 19 2ZM5 20V12H11V20H5ZM14 8H12V6H14V8ZM18 16H16V14H18V16ZM18 12H16V10H18V12ZM18 8H16V6H18V8Z" fill="#212121"/>
</svg>
