<svg width="24" height="24" viewBox="0 0 24 24" fill="none" xmlns="http://www.w3.org/2000/svg">
<path d="M2.00207 9.53794C1.97907 9.94895 2.20907 10.3319 2.58307 10.5039L10.0871 13.9459L13.5291 21.4489C13.6931 21.8049 14.0491 22.0319 14.4381 22.0319L14.4951 22.0299C14.6958 22.0187 14.8884 21.9472 15.0479 21.8249C15.2074 21.7025 15.3263 21.5349 15.3891 21.3439L20.9841 4.31194C21.1011 3.95394 21.0071 3.55894 20.7411 3.29194C20.4751 3.02494 20.0811 2.93394 19.7211 3.04894L2.68807 8.64495C2.49705 8.70732 2.32934 8.82597 2.20692 8.98532C2.08451 9.14468 2.0131 9.3373 2.00207 9.53794Z" fill="#212121"/>
</svg>
