<svg width="24" height="24" viewBox="0 0 24 24" fill="none" xmlns="http://www.w3.org/2000/svg">
<g clip-path="url(#clip0_1342_28042)">
<path d="M15.9653 12.4014C15.3316 12.4014 14.7353 12.0639 14.4128 11.5239L12.0016 7.52639L9.59409 11.5239C9.26784 12.0676 8.67159 12.4051 8.03784 12.4051C7.86909 12.4051 7.70034 12.3826 7.53909 12.3339L2.40159 10.8639V17.5389C2.40159 18.0901 2.77659 18.5701 3.30909 18.7014L11.4166 20.7301C11.7991 20.8239 12.2003 20.8239 12.5791 20.7301L20.6941 18.7014C21.2266 18.5664 21.6016 18.0864 21.6016 17.5389V10.8639L16.4641 12.3301C16.3028 12.3789 16.1341 12.4014 15.9653 12.4014ZM23.9378 8.19389L22.0066 4.33889C21.8903 4.10639 21.6391 3.97139 21.3803 4.00514L12.0016 5.20139L15.4403 10.9051C15.5828 11.1414 15.8678 11.2539 16.1341 11.1789L23.5553 9.06014C23.9266 8.95139 24.1066 8.53889 23.9378 8.19389ZM1.99659 4.33889L0.0653372 8.19389C-0.107163 8.53889 0.0765872 8.95139 0.444087 9.05639L7.86534 11.1751C8.13159 11.2501 8.41659 11.1376 8.55909 10.9014L12.0016 5.20139L2.61909 4.00514C2.36034 3.97514 2.11284 4.10639 1.99659 4.33889Z" fill="#212121"/>
</g>
<defs>
<clipPath id="clip0_1342_28042">
<rect width="24" height="24" fill="white"/>
</clipPath>
</defs>
</svg>
