<svg width="24" height="24" viewBox="0 0 24 24" fill="none" xmlns="http://www.w3.org/2000/svg">
<path d="M16.8989 7.05095C16.5085 6.6605 15.8754 6.66046 15.4849 7.05087L12.6561 9.87905C12.2655 10.2695 11.6324 10.2695 11.2419 9.87897L8.41397 7.05099C8.0235 6.66053 7.39043 6.66053 6.99997 7.05099C6.6095 7.44146 6.6095 8.07453 6.99997 8.46499L9.82786 11.2929C10.2184 11.6834 10.2184 12.3166 9.82786 12.7071L6.99997 15.535C6.6095 15.9255 6.6095 16.5585 6.99997 16.949C7.39043 17.3395 8.0235 17.3395 8.41397 16.949L11.2419 14.121C11.6324 13.7305 12.2655 13.7305 12.6561 14.1209L15.4849 16.9491C15.8754 17.3395 16.5085 17.3395 16.8989 16.949C17.2894 16.5585 17.2894 15.9254 16.8989 15.535L14.0711 12.7071C13.6806 12.3166 13.6806 11.6834 14.0711 11.2929L16.8989 8.46504C17.2894 8.07455 17.2894 7.44144 16.8989 7.05095Z" fill="#212121"/>
</svg>
