<svg width="24" height="24" viewBox="0 0 24 24" fill="none" xmlns="http://www.w3.org/2000/svg">
<path d="M15.5 6.93494C16.5645 7.54916 17.4484 8.4329 18.0628 9.49725C18.6772 10.5616 19.0004 11.769 19 12.9979V20.9979H14.83C14.6234 21.5835 14.2403 22.0905 13.7334 22.4492C13.2265 22.8078 12.6209 23.0004 12 23.0004C11.3791 23.0004 10.7735 22.8078 10.2666 22.4492C9.75974 22.0905 9.3766 21.5835 9.17 20.9979H5V12.9979C4.99955 11.769 5.3228 10.5616 5.93721 9.49725C6.55163 8.4329 7.43554 7.54916 8.5 6.93494C8.33569 6.63982 8.20967 6.32495 8.125 5.99794H5V3.99794H8.126C8.34844 3.1397 8.84957 2.37962 9.55074 1.83702C10.2519 1.29441 11.1134 1 12 1C12.8866 1 13.7481 1.29441 14.4493 1.83702C15.1504 2.37962 15.6516 3.1397 15.874 3.99794H19V5.99794H15.874C15.7895 6.3247 15.6642 6.63951 15.501 6.93494H15.5ZM12 13.9979C11.7348 13.9979 11.4804 14.1033 11.2929 14.2908C11.1054 14.4784 11 14.7327 11 14.9979V19.9979C11 20.2632 11.1054 20.5175 11.2929 20.7051C11.4804 20.8926 11.7348 20.9979 12 20.9979C12.2652 20.9979 12.5196 20.8926 12.7071 20.7051C12.8946 20.5175 13 20.2632 13 19.9979V14.9979C13 14.7327 12.8946 14.4784 12.7071 14.2908C12.5196 14.1033 12.2652 13.9979 12 13.9979ZM12 6.99794C12.5304 6.99794 13.0391 6.78723 13.4142 6.41216C13.7893 6.03709 14 5.52838 14 4.99794C14 4.46751 13.7893 3.9588 13.4142 3.58373C13.0391 3.20866 12.5304 2.99794 12 2.99794C11.4696 2.99794 10.9609 3.20866 10.5858 3.58373C10.2107 3.9588 10 4.46751 10 4.99794C10 5.52838 10.2107 6.03709 10.5858 6.41216C10.9609 6.78723 11.4696 6.99794 12 6.99794Z" fill="#212121"/>
</svg>
